<?xml version="1.0" encoding="UTF-8" standalone="no"?>
<!-- Created with Inkscape (http://www.inkscape.org/) -->
<svg
   xmlns:dc="http://purl.org/dc/elements/1.1/"
   xmlns:cc="http://web.resource.org/cc/"
   xmlns:rdf="http://www.w3.org/1999/02/22-rdf-syntax-ns#"
   xmlns:svg="http://www.w3.org/2000/svg"
   xmlns="http://www.w3.org/2000/svg"
   xmlns:sodipodi="http://inkscape.sourceforge.net/DTD/sodipodi-0.dtd"
   xmlns:inkscape="http://www.inkscape.org/namespaces/inkscape"
   width="841.88977pt"
   height="595.27557pt"
   id="svg2"
   sodipodi:version="0.32"
   inkscape:version="0.43"
   version="1.0"
   sodipodi:docbase="/home/garoth/Desktop"
   sodipodi:docname="meteor2.svg">
  <defs
     id="defs4" />
  <sodipodi:namedview
     id="base"
     pagecolor="#ffffff"
     bordercolor="#666666"
     borderopacity="1.0"
     inkscape:pageopacity="0.0"
     inkscape:pageshadow="2"
     inkscape:zoom="1.0294392"
     inkscape:cx="526.18111"
     inkscape:cy="372.04725"
     inkscape:document-units="px"
     inkscape:current-layer="layer1"
     inkscape:window-width="1270"
     inkscape:window-height="939"
     inkscape:window-x="0"
     inkscape:window-y="26"
     showguides="true"
     inkscape:guide-bbox="true" />
  <metadata
     id="metadata7">
    <rdf:RDF>
      <cc:Work
         rdf:about="">
        <dc:format>image/svg+xml</dc:format>
        <dc:type
           rdf:resource="http://purl.org/dc/dcmitype/StillImage" />
      </cc:Work>
    </rdf:RDF>
  </metadata>
  <g
     inkscape:label="MeteorBack"
     inkscape:groupmode="layer"
     id="layer1">
    <g
       id="g1344"
       inkscape:label="Layer 1"
       transform="matrix(0.882107,0,0,0.882107,70.40821,29.79893)"
       inkscape:export-filename="/home/garoth/Desktop/meteor2.png"
       inkscape:export-xdpi="9.7500286"
       inkscape:export-ydpi="9.7500286">
      <g
         transform="matrix(0.988252,0,0,0.988252,11.57176,-62.28948)"
         id="g10983">
        <g
           id="g3964"
           transform="translate(93.42119,-152.4963)">
          <path
             d="M 48.651079,770.18658 C 41.323124,774.20252 34.103688,778.42318 26.667213,782.23442 C 16.598866,787.39453 40.869054,764.61646 47.763377,755.64615 C 62.12717,736.95718 77.378848,718.77267 93.72922,701.78584 C 150.41487,642.89367 217.48264,595.22816 284.1915,548.53905 C 325.92482,519.20054 369.55947,492.73208 413.31577,466.56279 L 428.37011,460.76791 C 383.01703,487.16935 337.91101,514.10463 294.94628,544.30276 C 229.79648,589.92151 164.19523,636.56437 109.75049,695.04322 C 95.70828,710.12589 65.509668,763.59106 50.640719,772.5467 C 43.100323,777.08832 35.288652,781.16351 27.61262,785.47191 L 48.651079,770.18658 z "
             id="path1309"
             style="fill:#b40909;fill-opacity:1;fill-rule:nonzero;stroke:#f30909;stroke-width:0.64179355px;stroke-linecap:butt;stroke-linejoin:miter;stroke-opacity:1" />
          <path
             d="M 90.826086,775.68767 C 180.38353,720.27924 330.97448,628.13347 435.34039,550.15009 C 463.61695,528.99588 488.02942,503.73185 511.74138,477.7747 L 527.04695,471.37896 C 501.50935,497.85725 475.50105,523.90213 445.89682,545.95657 C 326.1613,634.69225 197.7932,715.49005 69.787625,790.973 L 90.826086,775.68767 z "
             id="path1311"
             style="fill:#b40909;fill-opacity:1;fill-rule:nonzero;stroke:#f30909;stroke-width:0.64179355px;stroke-linecap:butt;stroke-linejoin:miter;stroke-opacity:1" />
          <path
             d="M 77.670698,768.84334 C 173.18349,666.31547 302.19931,596.91675 422.31867,526.46258 C 430.60237,521.57099 438.88608,516.67941 447.16978,511.78783 L 462.51927,505.89057 C 453.45444,511.08269 444.38961,516.27481 435.32478,521.46693 C 317.60905,589.03932 193.81786,656.70081 100.84129,757.03733 L 77.670698,768.84334 z "
             id="path1313"
             style="fill:#b40909;fill-opacity:1;fill-rule:nonzero;stroke:#f30909;stroke-width:0.64179355px;stroke-linecap:butt;stroke-linejoin:miter;stroke-opacity:1" />
          <path
             d="M 140.46649,829.59082 C 255.81676,698.31532 409.99156,607.51242 558.49687,518.55388 L 566.23827,515.56991 C 423.03566,600.49323 268.36707,687.59013 163.45625,819.82305 L 140.46649,829.59082 z "
             id="path1315"
             style="fill:#b40909;fill-opacity:1;fill-rule:nonzero;stroke:#f30909;stroke-width:0.64179355px;stroke-linecap:butt;stroke-linejoin:miter;stroke-opacity:1" />
          <path
             d="M 224.36637,851.35966 C 271.56581,724.57597 366.44211,631.48145 474.63334,554.47292 C 531.37774,518.89073 502.03612,536.45001 562.75352,501.95468 L 552.9856,509.84277 C 510.8959,532.77139 534.51868,519.25801 482.65464,551.3082 C 378.43433,624.78001 285.66456,714.51948 247.53696,839.55365 L 224.36637,851.35966 z "
             id="path1317"
             style="fill:#b40909;fill-opacity:1;fill-rule:nonzero;stroke:#f30909;stroke-width:0.64179355px;stroke-linecap:butt;stroke-linejoin:miter;stroke-opacity:1" />
          <path
             d="M 78.68805,789.69874 C 226.95753,720.107 355.47591,611.12356 481.47873,507.79677 C 492.19589,498.59666 502.91305,489.39655 513.63021,480.19644 L 524.96291,475.61189 C 513.65847,485.05697 502.35404,494.50205 491.0496,503.94713 C 354.66437,613.90887 217.48903,729.66039 58.447332,805.42369 L 78.68805,789.69874 z "
             id="path1319"
             style="fill:#b40909;fill-opacity:1;fill-rule:nonzero;stroke:#f30909;stroke-width:0.64179355px;stroke-linecap:butt;stroke-linejoin:miter;stroke-opacity:1" />
          <path
             d="M 99.984422,791.08426 C 96.8214,794.19631 93.705223,797.46699 90.495357,800.42043 C 86.149477,804.41911 96.62541,786.76784 99.601259,779.81652 C 105.80122,765.33398 112.38441,751.24235 119.44185,738.07885 C 143.90951,692.44187 172.8585,655.5047 201.65255,619.32416 C 219.66623,596.58904 238.50059,576.07797 257.38747,555.79875 L 263.88547,551.30816 C 244.30939,571.76728 224.83992,592.64009 206.29472,616.04135 C 178.17361,651.39244 149.85764,687.53714 126.35723,732.85383 C 120.29608,744.54176 107.26123,785.97323 100.84323,792.91317 C 97.588504,796.43258 94.216694,799.59054 90.903428,802.92924 L 99.984422,791.08426 z "
             id="path2194"
             style="fill:#f57e29;fill-opacity:1;fill-rule:nonzero;stroke:#f30909;stroke-width:0.37118012px;stroke-linecap:butt;stroke-linejoin:miter;stroke-opacity:1" />
          <path
             d="M 118.18875,795.34718 C 156.84512,752.40983 221.84585,681.00383 266.8941,620.5726 C 279.09935,604.17968 289.63669,584.60197 299.87167,564.48713 L 306.47813,559.53092 C 295.45513,580.0496 284.22897,600.23241 271.45068,617.32293 C 219.7683,686.08638 164.35979,748.69857 109.10775,807.19216 L 118.18875,795.34718 z "
             id="path2196"
             style="fill:#f57e29;fill-opacity:1;fill-rule:nonzero;stroke:#f30909;stroke-width:0.37118012px;stroke-linecap:butt;stroke-linejoin:miter;stroke-opacity:1" />
          <path
             d="M 112.51038,790.04335 C 153.73731,710.59199 209.4254,656.81322 261.27345,602.21656 C 264.84901,598.42595 268.42457,594.63535 272.00012,590.84474 L 278.62556,586.27481 C 274.71284,590.29832 270.80009,594.32181 266.88737,598.34532 C 216.07682,650.70881 162.64388,703.14135 122.51168,780.89458 L 112.51038,790.04335 z "
             id="path2198"
             style="fill:#f57e29;fill-opacity:1;fill-rule:nonzero;stroke:#f30909;stroke-width:0.37118012px;stroke-linecap:butt;stroke-linejoin:miter;stroke-opacity:1" />
          <path
             d="M 139.61542,837.11803 C 189.40494,735.38945 255.95261,665.02407 320.05311,596.08792 L 323.39457,593.77557 C 261.58292,659.58473 194.82213,727.07824 149.53866,829.54875 L 139.61542,837.11803 z "
             id="path2200"
             style="fill:#f57e29;fill-opacity:1;fill-rule:nonzero;stroke:#f30909;stroke-width:0.37118012px;stroke-linecap:butt;stroke-linejoin:miter;stroke-opacity:1" />
          <path
             d="M 175.82977,853.98726 C 196.20283,755.73948 237.15502,683.59826 283.85443,623.92246 C 308.34744,596.34895 295.68251,609.95607 321.89043,583.2248 L 317.67423,589.33747 C 299.50672,607.10542 309.70319,596.63357 287.31674,621.47004 C 242.33131,678.40515 202.28838,747.94645 185.83107,844.8385 L 175.82977,853.98726 z "
             id="path2202"
             style="fill:#f57e29;fill-opacity:1;fill-rule:nonzero;stroke:#f30909;stroke-width:0.37118012px;stroke-linecap:butt;stroke-linejoin:miter;stroke-opacity:1" />
          <path
             d="M 112.94951,806.20471 C 176.94821,752.27636 232.42159,667.82243 286.80915,587.75197 C 291.43509,580.62259 296.06103,573.49319 300.68695,566.3638 L 305.57858,562.81113 C 300.69917,570.13035 295.81972,577.44957 290.9403,584.76879 C 232.0713,669.98083 172.86125,759.67952 104.21285,818.39034 L 112.94951,806.20471 z "
             id="path2204"
             style="fill:#f57e29;fill-opacity:1;fill-rule:nonzero;stroke:#f30909;stroke-width:0.37118012px;stroke-linecap:butt;stroke-linejoin:miter;stroke-opacity:1" />
          <path
             d="M 104.72416,785.86584 C 101.34769,787.55318 97.970121,789.37611 94.594755,790.92789 C 90.024787,793.02886 103.04089,781.68033 107.22188,776.93724 C 115.93265,767.05539 124.86082,757.57144 133.94709,748.92837 C 165.44855,718.96344 198.46152,696.88929 231.15827,675.37165 C 251.63857,661.83135 272.2382,650.23089 292.82312,638.82478 L 299.28467,636.85064 C 278.08838,648.23368 256.87648,659.96657 235.79304,673.90271 C 203.85643,694.93011 171.56154,716.53352 140.93499,746.47765 C 133.0359,754.20074 111.98066,783.59061 104.97346,787.50482 C 101.41994,789.48983 97.860413,791.16345 94.303888,792.99276 L 104.72416,785.86584 z "
             id="path3079"
             style="fill:#4571ee;fill-opacity:1;fill-rule:nonzero;stroke:#f30909;stroke-width:0.3114526px;stroke-linecap:butt;stroke-linejoin:miter;stroke-opacity:1" />
          <path
             d="M 118.62192,793.54563 C 161.11099,769.07785 232.35842,728.55736 284.4677,691.89165 C 298.591,681.94198 312.13844,669.09716 325.57148,655.75904 L 332.23839,653.44557 C 318.05689,666.91271 303.79227,680.06803 289.02386,690.42832 C 229.38221,732.04875 168.2136,767.95713 108.20164,800.67254 L 118.62192,793.54563 z "
             id="path3081"
             style="fill:#4571ee;fill-opacity:1;fill-rule:nonzero;stroke:#f30909;stroke-width:0.3114526px;stroke-linecap:butt;stroke-linejoin:miter;stroke-opacity:1" />
          <path
             d="M 115.27888,788.03319 C 168.99526,735.53967 228.18868,706.62599 284.43018,676.15609 C 288.31509,674.03481 292.2,671.91354 296.0849,669.79226 L 302.67099,667.78627 C 298.45084,670.00989 294.23066,672.23349 290.01052,674.4571 C 235.17915,703.42267 178.17526,731.81769 125.78251,783.24015 L 115.27888,788.03319 z "
             id="path3083"
             style="fill:#4571ee;fill-opacity:1;fill-rule:nonzero;stroke:#f30909;stroke-width:0.3114526px;stroke-linecap:butt;stroke-linejoin:miter;stroke-opacity:1" />
          <path
             d="M 125.80538,831.41058 C 192.12004,763.48461 264.37911,724.14877 334.27015,685.35097 L 337.59364,684.33335 C 270.36435,721.22386 198.64698,758.2565 135.85059,827.83774 L 125.80538,831.41058 z "
             id="path3085"
             style="fill:#4571ee;fill-opacity:1;fill-rule:nonzero;stroke:#f30909;stroke-width:0.3114526px;stroke-linecap:butt;stroke-linejoin:miter;stroke-opacity:1" />
          <path
             d="M 151.35853,853.26761 C 192.62737,781.0645 244.29319,734.2389 297.57096,698.55899 C 324.58426,682.76736 310.77855,690.42261 338.99108,675.70003 L 334.00001,679.48991 C 314.63319,689.09778 325.62749,683.31354 301.02873,697.46029 C 249.8438,731.39895 199.57428,776.40201 161.86217,848.47457 L 151.35853,853.26761 z "
             id="path3087"
             style="fill:#4571ee;fill-opacity:1;fill-rule:nonzero;stroke:#f30909;stroke-width:0.3114526px;stroke-linecap:butt;stroke-linejoin:miter;stroke-opacity:1" />
          <path
             d="M 111.60563,800.8132 C 177.66674,773.76182 244.3408,720.73835 309.02824,670.89418 C 314.60986,666.4045 320.19148,661.91482 325.77309,657.42512 L 330.68026,655.80396 C 324.84293,660.38215 319.00556,664.96034 313.16823,669.53853 C 243.51411,722.34774 172.45976,778.59461 101.38332,808.28934 L 111.60563,800.8132 z "
             id="path3089"
             style="fill:#4571ee;fill-opacity:1;fill-rule:nonzero;stroke:#f30909;stroke-width:0.3114526px;stroke-linecap:butt;stroke-linejoin:miter;stroke-opacity:1" />
        </g>
        <path
           style="fill:#ffffff;fill-opacity:0.76344084;fill-rule:evenodd;stroke:none;stroke-width:1px;stroke-linecap:butt;stroke-linejoin:miter;stroke-opacity:1"
           d="M 49.458275,608.61157 C 282.26829,487.74408 515.03257,365.36209 734.77718,221.6905 C 817.93874,165.21197 898.634,101.36312 982.29629,48.084434 C 774.96415,229.09022 567.94204,411.26536 376.79941,609.55057 C 333.36305,658.38371 283.58728,704.78932 256.22503,765.09961 C 259.28452,808.8885 235.44055,735.14814 217.41218,725.88782 C 172.80144,672.41736 111.67532,637.59753 49.458275,608.61157 z "
           id="path4857" />
        <path
           style="fill:#890000;fill-opacity:1;fill-rule:nonzero;stroke:none;stroke-width:1px;stroke-linecap:butt;stroke-linejoin:miter;stroke-opacity:1"
           id="path6608"
           d="M 194.84983,603.0421 C 194.62725,592.06471 177.43004,612.91382 168.42234,617.26622 C 164.52751,619.14815 174.02222,610.67175 176.83145,607.38244 C 187.3105,595.11258 198.60887,583.60168 211.08916,573.34464 C 231.48478,556.58232 255.34842,542.39021 279.30443,531.7744 L 255.15105,550.92011 C 241.92319,556.8563 249.76109,553.62955 267.16553,542.74878 C 273.51397,538.77991 254.22879,550.33035 248.14066,554.688 C 218.72376,575.74346 201.55195,608.25962 168.17286,622.42405 L 194.84983,603.0421 z " />
        <path
           style="fill:#ce0d2e;fill-opacity:1;fill-rule:nonzero;stroke:none;stroke-width:1px;stroke-linecap:butt;stroke-linejoin:miter;stroke-opacity:1"
           id="path6610"
           d="M 351.4677,567.32223 C 272.13605,619.44456 410.92611,502.68525 421.58324,494.88683 L 449.31235,483.94399 C 404.28207,514.98311 372.25642,560.14653 324.79073,586.70418 L 351.4677,567.32223 z " />
        <path
           style="fill:#ca0000;fill-opacity:1;fill-rule:nonzero;stroke:none;stroke-width:1px;stroke-linecap:butt;stroke-linejoin:miter;stroke-opacity:1"
           id="path6612"
           d="M 360.00073,474.62067 C 395.67609,450.44451 434.86554,431.42916 474.02083,413.5397 L 453.21752,430.06948 C 404.58967,452.57921 394.82466,458.83171 390.44511,462.0102 L 360.00073,474.62067 z " />
        <path
           style="fill:#0094de;fill-opacity:0.68817204;fill-rule:nonzero;stroke:none;stroke-width:1px;stroke-linecap:butt;stroke-linejoin:miter;stroke-opacity:1"
           id="path6614"
           d="M 280.54835,679.63616 C 333.83181,633.83096 403.42449,606.31921 468.00083,579.36539 L 445.4828,597.09118 C 386.9682,620.11768 347.17552,635.22872 310.53193,666.07065 L 280.54835,679.63616 z " />
        <path
           style="fill:#fa6229;fill-opacity:1;fill-rule:nonzero;stroke:none;stroke-width:1px;stroke-linecap:butt;stroke-linejoin:miter;stroke-opacity:1"
           id="path6616"
           d="M 214.0836,469.77952 C 204.92329,474.78791 195.96997,480.19502 186.60268,484.80469 C 183.38214,486.38953 191.36094,479.41785 193.95738,476.93952 C 203.61154,467.72451 214.46886,459.78514 225.63623,452.52006 C 261.6168,429.11242 300.06915,410.39809 339.69535,394.17676 L 316.85826,412.13695 C 260.38191,434.23589 242.60925,450.40063 187.40663,489.16148 L 214.0836,469.77952 z " />
      </g>
    </g>
    <g
       id="g1615"
       transform="matrix(0.896717,0,0,0.896717,-158.8468,342.8691)"
       inkscape:export-filename="/home/garoth/Desktop/meteor2.png"
       inkscape:export-xdpi="9.7500286"
       inkscape:export-ydpi="9.7500286">
      <path
         style="fill:#8b7358"
         d="M 288.50622,419.62295 C 280.51149,398.67846 249.76056,401.53547 242.42295,379.79958 C 233.97231,367.36244 208.34449,361.72588 216.13376,341.4584 C 206.20423,336.30041 191.88796,326.52045 200.03104,313.65084 C 185.21156,310.43711 195.28927,271.3349 206.35554,283.79506 C 203.00142,293.12964 219.91794,293.69873 223.87171,292.65024 C 232.96649,297.97505 230.11215,285.63558 238.58163,287.16186 C 232.83208,282.00849 205.60106,292.40774 216.93569,281.2949 C 224.40871,276.73632 211.1038,264.10697 219.32532,256.2692 C 224.30744,240.73651 224.38315,224.87796 237.53446,212.96318 C 247.46885,200.47943 259.37181,189.45127 273.06895,181.20567 C 282.32063,187.50332 291.43895,211.20781 303.29785,193.58001 C 319.58429,199.99877 335.10199,183.41411 351.44336,189.91076 C 364.4487,196.57752 360.46978,221.08717 376.12364,221.84266 C 389.15352,217.34148 372.42509,194.13612 392.15014,193.73251 C 404.78073,193.52637 418.56776,190.22958 429.87815,198.34327 C 439.3574,205.49668 451.48058,209.08273 459.91713,217.07871 C 473.58202,232.9624 486.25664,250.97071 491.9646,271.2017 C 499.07372,275.42901 519.3414,268.04644 510.88689,283.79207 C 518.96932,302.25224 526.38529,327.41502 510.53118,343.96832 C 499.17661,358.54583 480.18818,356.6421 464.21878,360.85047 C 450.80687,381.13852 423.33446,379.36254 404.94181,392.74648 C 385.16233,404.06272 365.53206,417.73684 342.33689,420.56618 C 324.91466,414.28827 306.38471,418.84407 288.50622,419.62295 z M 511.47619,310.73385 C 500.18603,307.0129 507.30736,318.02987 511.47619,310.73385 z M 470.61523,309.71713 C 478.56539,300.98431 459.83349,317.03787 470.61523,309.71713 z M 458.47619,303.31843 C 455.9804,300.83233 456.06238,308.13819 458.47619,303.31843 z M 244.47619,287.81843 C 239.43273,282.76513 242.49007,293.79211 244.47619,287.81843 z M 256.72619,272.8911 C 257.7297,266.33668 247.43804,278.12383 256.72619,272.8911 z M 281.47619,253.87745 C 279.0679,249.99637 278.85684,257.82264 281.47619,253.87745 z M 427.47619,203.87745 C 425.0679,199.99637 424.85684,207.82265 427.47619,203.87745 z "
         id="path1587" />
      <path
         style="fill:#6d604d"
         d="M 290.77423,419.15246 C 283.60747,408.09916 275.67006,399.53423 262.01049,398.67161 C 245.80621,389.48879 241.54678,365.58561 221.47619,362.18197 C 219.96599,347.46826 212.49013,330.41551 198.93408,327.78235 C 208.10422,314.31283 184.95269,301.04484 198.75595,291.94437 C 211.09909,294.44156 227.161,300.76359 237.01291,298.05461 C 239.69384,290.64339 252.75689,306.68801 259.77249,296.06131 C 262.33125,290.34876 264.38914,300.43382 271.51274,294.02421 C 264.98328,283.80145 285.70591,307.06285 294.13915,302.74024 C 305.06286,301.74192 322.24108,305.53076 330.69988,296.36343 C 322.99164,297.30462 305.12496,298.61018 321.92876,291.33766 C 330.59694,288.85155 342.80858,277.43285 325.72085,278.67875 C 312.93823,290.8385 292.02433,298.11486 277.28135,287.03877 C 269.88981,281.83538 264.37686,280.8763 276.88978,282.92434 C 294.55386,289.63909 312.71465,279.62378 322.85306,268.61468 C 310.67621,268.93439 298.77511,262.13982 292.29881,277.63229 C 286.65577,283.83245 280.91978,269.27297 277.44127,266.20944 C 282.58938,270.78948 302.8812,263.17974 296.84591,260.26917 C 287.2692,265.71067 304.88473,248.09911 308.59532,244.66366 C 318.14958,235.70592 333.72347,248.37797 342.32037,239.18682 C 337.42644,237.19201 310.94054,242.09202 321.33836,234.5651 C 328.15643,234.01733 344.79594,229.92369 339.92058,221.12339 C 332.08217,225.18585 326.90488,228.4474 319.96757,221.75697 C 313.66946,238.35657 304.95688,221.82053 306.03243,213.6875 C 304.24232,222.55704 273.27964,223.90747 291.0501,230.49069 C 298.2118,234.26988 311.63726,223.09599 302.24538,235.27117 C 291.57224,249.2507 270.05249,249.33349 257.89059,239.54767 C 254.94475,247.12676 229.40871,245.95396 246.88848,252.12279 C 261.17924,255.27234 240.26462,259.17717 249.95844,263.36974 C 252.56686,278.39276 236.57803,259.81557 242.99235,259.84197 C 241.10588,269.4338 212.25809,274.18898 221.22974,263.32994 C 235.99319,257.94548 216.38267,238.62858 228.40462,227.96604 C 234.65169,214.32685 247.42934,205.87303 256.71518,194.58089 C 265.72104,181.1568 284.19395,182.73423 286.19884,199.76424 C 296.93184,209.77426 309.10505,185.52107 320.68821,197.02405 C 307.84596,199.28581 312.69184,214.44906 323.90369,205.95756 C 334.75607,195.98589 328.50721,220.72986 334.98169,207.25592 C 331.31992,203.72982 326.84908,192.21191 338.23832,190.49784 C 361.00442,184.01967 357.8876,215.37623 371.08062,225.14564 C 379.06298,227.76692 377.53565,227.65794 373.23552,233.84863 C 379.7279,236.23279 402.78564,227.42563 399.31648,223.30571 C 392.88962,225.30897 376.48639,229.44159 386.5822,219.3472 C 395.80801,215.35168 417.75211,205.61895 420.35776,213.43611 C 402.39713,211.93382 422.99608,228.18066 426.71942,215.09383 C 437.18243,203.51292 456.49619,213.89095 463.74042,222.46959 C 463.18169,231.96457 473.1894,235.74284 464.80455,243.68787 C 461.55574,258.31505 480.29283,237.35415 484.21221,252.18647 C 487.54775,262.29291 496.08139,282.06029 479.69313,284.41985 C 464.79366,284.83193 452.30201,292.82968 436.90104,292.17352 C 428.54292,288.56725 404.40248,303.85743 420.80986,304.27906 C 425.99204,301.32811 438.86242,295.54375 435.90806,307.27853 C 446.46067,305.15998 463.86851,309.73908 459.79264,293.65431 C 467.79648,285.87723 481.65876,302.73971 488.39541,287.6164 C 491.3076,276.17516 515.31628,265.53736 509.95133,284.14009 C 516.75935,303.26872 489.92528,281.97686 485.0426,298.31255 C 486.69124,304.60661 497.72139,305.03408 484.82691,305.42186 C 477.5541,301.96832 455.60661,304.41409 467.77895,314.41857 C 483.64447,325.67836 506.3511,310.26908 519.34659,317.38645 C 519.36897,331.21084 511.11832,347.35062 497.36247,351.86946 C 486.16899,361.77926 466.07621,350.95907 458.38025,366.66127 C 444.03436,380.85628 421.20261,378.61681 405.84378,391.31189 C 384.18128,402.03376 363.97035,419.54822 338.53226,419.27055 C 323.17848,413.00397 306.5466,417.5325 290.77423,419.15246 z M 460.47619,336.31843 C 457.9804,333.83233 458.06238,341.13819 460.47619,336.31843 z M 385.3883,326.12745 C 392.76878,314.12336 371.36769,332.49837 385.3883,326.12745 z M 467.50598,323.93313 C 462.03809,315.35236 465.16214,331.03297 467.50598,323.93313 z M 365.10284,322.95961 C 377.71994,315.23965 358.14364,321.10052 360.12972,324.15439 L 362.03419,323.80021 L 365.10282,322.95961 L 365.10284,322.95961 z M 348.22619,319.18246 C 360.31139,312.20318 324.70306,323.22525 344.93005,319.64356 C 346.02876,319.48986 347.12748,319.33616 348.22619,319.18246 z M 262.97619,318.87745 C 280.26746,314.15615 257.61508,306.20354 257.9431,315.96821 L 259.7928,317.34868 L 262.97619,318.87745 L 262.97619,318.87745 z M 388.01733,318.81093 C 387.44603,313.14709 382.30847,322.59246 388.01733,318.81093 z M 443.90606,315.84759 C 442.6384,304.60679 414.70137,311.31688 433.02531,315.54114 C 436.92968,317.08942 439.79917,318.87419 443.90606,315.84759 z M 358.34509,314.53544 C 358.74784,307.64173 350.75563,319.91862 358.34509,314.53544 z M 405.44189,295.72297 C 408.83714,288.84419 440.19091,290.40625 422.57094,284.08905 C 415.6079,283.49414 398.9575,279.14978 415.30731,276.03917 C 405.52586,272.08631 392.18306,282.30848 384.96373,282.5899 C 385.96563,294.88861 399.66829,288.45403 400.30825,284.44223 C 421.60882,288.98105 382.58124,298.14017 387.31916,297.43583 C 393.40506,297.71356 399.48633,296.91925 405.44189,295.72297 z M 359.47619,295.87745 C 356.43658,291.79126 355.82466,300.37896 359.47619,295.87745 z M 341.38885,292.12745 C 350.9784,283.52342 328.53948,297.88811 341.38885,292.12745 z M 383.2312,292.12745 C 375.70807,285.59546 377.35758,298.4297 383.2312,292.12745 z M 354.22619,281.51852 C 352.77118,272.1914 357.88772,261.50538 367.76796,259.76412 C 349.07069,264.9799 372.53092,234.73304 356.99025,248.43602 C 343.87861,259.30621 323.30165,249.70635 311.33785,263.13911 C 325.42852,259.31885 344.17224,259.81755 356.04309,259.14977 C 359.88572,270.32763 321.88488,271.61248 343.12233,273.0968 C 359.03564,268.69596 340.00749,294.60873 354.22619,281.51852 L 354.22619,281.51852 z M 380.22619,278.18812 C 373.84043,276.26663 376.75857,280.04168 380.22619,278.18812 L 380.22619,278.18812 z M 453.55737,276.27965 C 473.94458,277.57652 451.47864,260.8202 445.64189,272.39358 C 442.65781,275.65821 452.10846,279.64749 453.55737,276.27965 z M 365.47619,273.87745 C 363.0679,269.99637 362.85684,277.82264 365.47619,273.87745 z M 359.97619,272.87745 C 358.34677,269.30567 356.7188,276.38483 359.97619,272.87745 z M 377.69482,266.22027 C 393.72872,260.39488 373.44861,253.75636 372.79603,264.1147 C 373.01663,265.59032 377.76763,271.93326 377.69482,266.22027 z M 393.8944,266.27046 C 398.6378,257.73275 382.3857,268.25667 393.8944,266.27046 z M 417.28802,256.61597 C 411.62404,248.95051 411.91305,264.56289 417.28802,256.61597 z M 433.28747,255.18043 C 429.18541,241.83347 426.62963,261.69453 433.28747,255.18043 z M 450.25366,254.32075 C 460.08377,240.28274 438.1642,257.23878 450.25366,254.32075 L 450.25366,254.32075 z M 368.47619,252.3079 C 363.20382,246.5644 362.97409,259.05183 368.47619,252.3079 z M 376.97619,246.87745 C 373.49911,242.90769 372.36421,250.52008 376.97619,246.87745 z M 369.66369,245.19434 C 363.67357,243.48902 371.04284,247.27621 369.66369,245.19434 z M 355.72619,241.37745 C 351.09855,237.04487 350.95795,247.2336 355.72619,241.37745 z M 394.91168,237.54828 C 399.21236,223.32697 383.08758,243.30236 394.91168,237.54828 z M 415.755,230.29924 C 413.726,214.68856 397.48729,226.16758 408.47588,234.80192 C 410.64544,237.99214 416.77742,233.35393 415.755,230.29924 z M 293.47619,234.93647 C 291.75324,229.56798 288.89346,239.33342 293.47619,234.93647 z M 283.88867,233.27266 C 287.2425,228.59026 277.34369,235.26911 283.88867,233.27266 z M 360.47619,228.31843 C 356.66858,223.11459 358.47509,235.05923 360.47619,228.31843 z M 435.98175,219.87132 C 435.7141,209.53438 423.38147,227.4114 435.98175,219.87132 z M 403.32171,217.42942 C 400.88386,212.3767 400.06884,225.01708 403.32171,217.42942 z M 287.82556,217.40947 C 284.4373,211.13242 281.28905,223.73874 287.82556,217.40947 z M 292.97619,213.87745 C 286.42043,208.98126 290.3756,218.42783 292.97619,213.87745 z M 343.47619,203.37745 C 341.33876,198.69283 341.70652,208.06067 343.47619,203.37745 z M 507.51141,305.41989 C 488.35808,299.82309 529.70205,302.89105 509.49344,306.45548 C 508.83276,306.11028 508.17209,305.76509 507.51141,305.41989 z M 495.14288,301.21078 C 493.14279,292.29257 504.06125,305.11373 495.14288,301.21078 z M 438.47619,297.37745 C 447.17134,289.37844 447.17131,305.37645 438.47619,297.37745 z M 220.97619,284.87745 C 227.53196,279.98127 223.57676,289.42782 220.97619,284.87745 z M 253.97619,284.41296 C 246.29631,287.69737 231.21826,279.32348 246.43132,277.64775 C 254.10645,279.37085 275.01657,266.15505 256.184,267.77105 C 260.60797,251.17793 285.19876,279.53892 264.53573,277.49764 C 261.56003,282.49723 262.37145,289.20746 253.97619,284.41296 z M 264.5863,251.51013 C 267.12489,239.56616 280.75525,255.09027 267.60098,252.33017 L 264.5863,251.51013 L 264.5863,251.51013 z M 297.47619,245.37745 C 303.78154,235.41576 304.25375,254.78937 297.47619,245.37745 z M 306.6762,237.67745 C 302.37033,226.75738 318.62353,241.32617 306.6762,237.67745 L 306.6762,237.67745 z M 414.47619,217.87745 C 416.88449,213.99637 417.09552,221.82265 414.47619,217.87745 z M 384.47619,212.00318 C 366.67255,194.01024 415.17932,194.33382 405.32201,205.9002 C 398.86668,205.53679 386.98075,214.35983 384.47619,212.00318 z M 428.49151,209.34174 C 431.20857,201.12485 433.05137,208.55582 428.49151,209.34174 z "
         id="path1585" />
      <path
         style="fill:#534733"
         d="M 286.39929,415.95437 C 281.45453,396.06132 253.54501,400.40966 245.01931,383.18418 C 242.91825,365.85968 212.6257,365.8259 217.24252,344.31823 C 218.06875,332.65235 188.25618,330.14622 202.53431,314.65694 C 189.36104,307.78679 196.85133,284.49223 210.45081,297.10252 C 229.58677,296.86994 250.26805,308.06001 268.05634,296.1628 C 277.29857,295.22506 276.49888,312.05966 285.06241,304.23657 C 304.40777,307.24618 327.16386,305.65254 341.97762,291.65212 C 351.61635,287.64707 375.79986,273.75249 357.66057,268.19832 C 367.11393,263.71748 371.69825,256.84887 360.44096,254.38374 C 360.32828,244.04496 375.62743,247.9634 363.02602,253.95807 C 373.65077,256.19093 382.35094,239.9916 366.09201,243.20251 C 356.01844,246.48786 348.74482,254.05508 338.25341,250.64754 C 327.31317,252.47924 304.57091,267.99809 300.38725,261.55263 C 304.77591,257.14426 293.54913,256.51146 304.88512,254.9164 C 308.89914,233.11374 331.38532,248.53766 344.36292,240.94935 C 348.88038,233.14684 322.11278,241.61154 319.67876,235.91752 C 327.71163,235.31067 350.82132,228.5884 338.46393,219.44933 C 331.54012,218.89737 323.83014,230.39555 330.67497,217.38662 C 335.95228,209.82368 338.20355,205.03486 334.07436,196.97417 C 345.40529,183.71197 366.17117,201.45227 355.48361,210.06704 C 362.79995,214.33627 373.55336,228.03272 375.11495,230.19493 C 360.87445,245.33354 402.41552,219.79832 388.79116,239.23574 C 399.92473,245.185 396.31482,217.28859 403.99103,231.11023 C 397.39408,243.47156 427.1353,235.36072 414.68912,223.67511 C 416.83162,211.6545 436.14903,229.84013 437.33334,217.07721 C 418.30975,215.483 449.42499,206.95304 454.78226,216.11908 C 460.06783,223.1398 463.26258,228.95458 467.23043,235.92996 C 467.42893,250.3433 443.84812,245.32551 446.20639,256.06255 C 455.08346,254.56533 456.65853,247.93641 461.32929,256.59596 C 471.16371,244.11702 493.81582,252.16358 487.27293,268.53822 C 481.25803,275.84796 494.7643,277.85002 482.82038,279.24756 C 477.12054,285.69265 475.06247,285.17635 469.13836,281.63203 C 453.37564,289.49183 437.3371,295.48746 419.62189,293.55383 C 401.69509,289.77839 446.41648,289.68667 423.76954,284.48922 C 409.84255,283.24697 415.44563,273.35437 425.56568,271.33321 C 429.78313,265.87053 408.76448,274.40073 404.23588,274.81887 C 398.20515,283.10136 378.30812,275.73134 376.80413,279.89427 C 392.81511,289.9952 363.38364,293.11417 355.39486,294.64112 C 349.178,302.78433 335.98733,305.07624 330.38942,310.7931 C 348.17504,310.56693 360.98941,289.1719 379.88756,296.54067 C 390.46286,305.29456 415.90926,285.8444 414.83076,307.23688 C 419.89527,301.52906 445.40736,300.36833 428.76328,308.50085 C 416.50818,311.6624 413.10639,333.78505 429.27845,322.38708 C 436.87815,323.07453 449.43368,313.31827 439.37337,307.33569 C 449.18693,307.85725 465.9473,308.56349 459.04056,297.07399 C 466.63035,288.85279 493.58831,298.25157 472.16188,302.63539 C 448.70891,308.57541 484.46887,332.0092 493.08979,317.4487 C 502.01847,322.8389 527.57809,305.44194 516.83083,326.34664 C 515.06988,345.27664 493.09808,358.10116 475.51237,356.74518 C 459.12889,355.8014 452.25194,376.9002 435.20644,378.36078 C 421.52315,382.65055 407.44781,386.9315 396.12843,396.05469 C 375.60944,407.03437 353.05893,424.99422 328.4668,416.0222 C 314.64264,410.18576 299.90594,423.10545 286.39929,415.95437 z M 455.83783,344.37745 C 464.4857,340.78922 457.02702,322.95213 469.98803,325.65483 C 468.6972,311.70025 449.65883,327.50161 457.2271,334.56088 C 456.3926,337.68829 444.94913,348.11735 455.83783,344.37745 z M 484.29351,341.48867 C 478.38154,335.01088 468.96201,348.7845 481.90278,342.67578 C 482.69969,342.28008 483.4966,341.88438 484.29351,341.48867 z M 298.45611,332.35328 L 296.86577,331.97996 L 298.45611,332.35328 L 298.45611,332.35328 z M 351.03503,332.34805 C 354.27922,326.34923 342.70569,337.66634 351.03503,332.34805 z M 379.2077,330.37155 C 389.07844,330.81442 399.22685,318.48409 388.58897,311.4254 C 385.98151,318.17494 368.40611,327.77781 373.25905,332.61479 C 375.32348,332.0972 377.27267,331.2361 379.2077,330.37155 z M 329.43273,330.57634 C 329.17424,322.63737 302.78277,323.80811 319.47704,330.24097 C 322.42561,332.02147 326.16497,330.35661 329.43273,330.57634 z M 422.23974,330.95045 C 435.04485,324.71535 412.52658,328.29552 416.43496,331.32673 C 418.37882,331.39012 420.3131,331.16866 422.23974,330.95045 z M 264.9013,321.71164 C 285.00263,316.34028 259.46451,297.99932 252.27629,312.60407 C 232.3475,307.43205 265.59445,328.18604 264.9013,321.71164 z M 279.90594,323.76376 C 273.17735,319.23572 276.37218,329.37601 279.90594,323.76376 z M 369.46173,321.78988 C 379.94476,307.15432 343.30075,329.96789 365.38913,324.02617 C 366.74666,323.28074 368.10419,322.53531 369.46173,321.78988 z M 242.47619,322.84607 C 238.99196,316.20021 237.38321,326.71202 242.47619,322.84607 z M 339.48278,321.87436 C 349.41941,328.10852 368.76315,304.74816 349.39029,315.07496 C 342.22491,315.53322 319.99555,323.99217 339.48278,321.87436 L 339.48278,321.87436 z M 404.47619,317.81843 C 399.43273,312.76513 402.49007,323.79211 404.47619,317.81843 z M 399.47619,313.81843 C 397.59883,311.50161 397.38952,317.50638 399.47619,313.81843 z M 302.97619,310.87745 C 300.55187,306.80533 298.59656,314.59817 302.97619,310.87745 z M 371.22619,309.59977 C 371.22369,301.68824 358.85591,315.66434 371.22619,309.59977 L 371.22619,309.59977 z M 453.56225,277.27375 C 464.83033,281.22082 471.9024,266.81402 457.87543,266.08933 C 450.69885,264.18744 431.02699,278.22321 453.56225,277.27375 z M 439.72619,269.37745 C 431.03231,261.91123 429.28652,275.64857 439.72619,269.37745 z M 378.47619,267.02933 C 389.97748,263.4298 384.86898,253.65815 375.00014,259.32608 C 366.62454,260.53713 375.90683,272.98929 378.47619,267.02933 z M 400.45208,265.83805 C 406.19405,258.20718 376.15149,265.55958 396.18945,265.97184 C 397.61033,265.92724 399.0312,265.88264 400.45208,265.83805 z M 420.247,263.06495 C 417.57791,258.9902 417.47499,268.10258 420.247,263.06495 L 420.247,263.06495 z M 416.80896,259.29821 C 419.69428,245.35486 404.5744,264.68193 416.80896,259.29821 z M 433.46539,257.39044 C 436.80954,236.36245 415.49471,260.14807 433.46539,257.39044 z M 406.47619,249.87745 C 404.0679,245.99637 403.85684,253.82264 406.47619,249.87745 z M 355.87536,242.57484 C 356.3101,233.70189 345.1761,247.50063 355.87536,242.57484 z M 347.47619,233.99246 C 340.49958,225.51237 338.74109,234.41843 347.47619,233.99246 z M 365.97619,232.87745 C 361.56,228.78528 364.33278,236.789 365.97619,232.87745 L 365.97619,232.87745 z M 361.44104,229.94319 C 359.50356,219.76649 345.75554,235.35765 360.17742,231.25897 C 360.59863,230.82038 361.01983,230.38178 361.44104,229.94319 z M 348.47619,228.87745 C 343.60296,223.94497 343.60294,233.80992 348.47619,228.87745 z M 350.1112,216.09595 C 342.42771,211.36693 341.9876,220.33519 350.1112,216.09595 z M 345.68847,204.12745 C 340.26901,191.02725 336.05838,218.58831 345.68847,204.12745 L 345.68847,204.12745 z M 427.33697,317.94844 C 425.32423,306.58448 440.97423,324.80871 427.33697,317.94844 L 427.33697,317.94844 z M 482.12683,304.40948 C 486.35388,295.93982 498.33616,309.22386 485.26589,305.30777 L 482.12683,304.40948 L 482.12683,304.40948 z M 508.47619,304.48587 C 516.70987,296.20047 518.0945,310.75979 508.47619,304.48587 z M 495.47619,299.87745 C 498.84325,295.6868 498.84324,304.06809 495.47619,299.87745 z M 237.9804,297.50416 C 236.8696,290.59146 247.07751,301.86897 237.9804,297.50416 z M 441.0426,297.97967 C 437.88105,291.56378 449.48845,301.69669 441.0426,297.97967 z M 314.97619,295.87745 C 320.08248,291.54435 317.0395,299.63236 314.97619,295.87745 L 314.97619,295.87745 z M 288.52679,293.43844 C 288.94534,278.78556 313.15272,289.21089 315.37429,274.91909 C 327.67783,271.55816 341.63358,251.43207 353.93349,264.4164 C 331.34373,267.2755 317.3596,289.61801 294.72113,292.45195 C 292.9536,293.25071 290.32255,295.47087 288.52679,293.43844 z M 320.6856,293.74914 C 328.14064,284.74462 338.63303,298.38026 324.09382,294.71264 L 320.6856,293.74914 L 320.6856,293.74914 z M 386.742,292.62745 C 394.55863,294.3772 401.0937,288.36987 399.96503,284.99468 C 419.58597,287.88993 391.80998,299.35933 386.742,292.62745 z M 485.79907,292.27653 C 492.05461,288.06929 496.54943,287.10098 494.81845,280.39596 C 502.19277,266.68591 518.80304,284.17449 506.24329,288.87192 C 499.343,289.1607 492.75521,293.84938 485.79907,292.27653 z M 333.47619,288.98774 C 335.36271,277.32249 351.39985,286.26944 339.19168,289.41511 L 336.64097,289.43501 L 333.47619,288.98774 L 333.47619,288.98774 z M 278.93505,284.81093 C 280.04779,279.15537 284.71332,289.46763 278.93505,284.81093 z M 254.47619,283.7455 C 245.71401,286.94256 233.25019,278.31839 249.21262,277.87371 C 254.13714,272.40646 282.47727,270.46917 263.47619,276.63274 C 256.4261,276.38076 264.34799,289.94286 254.47619,283.7455 z M 338.95556,279.8441 C 317.43277,276.91548 358.45496,271.70802 343.10839,280.00128 C 341.69029,281.83744 340.33099,280.28445 338.95556,279.8441 z M 406.47619,279.87745 C 409.84325,275.6868 409.84324,284.06809 406.47619,279.87745 z M 288.99939,275.91501 C 281.0449,273.60145 276.45669,264.91662 288.68902,267.31681 C 300.8673,259.64262 295.98444,280.14425 288.99939,275.91501 z M 313.47619,266.47528 C 316.24772,255.72998 331.83804,265.63403 319.34289,267.36027 L 316.71581,267.16514 L 313.47619,266.47528 L 313.47619,266.47528 z M 257.11633,267.18424 C 258.42454,258.87603 276.48856,268.38676 262.80904,267.75022 C 260.86309,267.99301 258.99955,267.50069 257.11633,267.18424 z M 244.8562,265.42534 C 245.58863,256.30485 251.9351,269.1287 244.8562,265.42534 z M 228.47619,263.10688 C 226.61887,250.5727 253.08341,249.19535 236.91823,260.74205 C 234.26277,261.76475 231.52193,264.38458 228.47619,263.10688 z M 328.6939,261.72295 C 333.84903,255.25479 331.93241,265.76124 328.6939,261.72295 L 328.6939,261.72295 z M 292.47619,261.43647 C 294.89001,256.61672 294.97197,263.92256 292.47619,261.43647 z M 246.47619,255.46078 C 249.60422,249.66846 249.30671,259.84755 246.47619,255.46078 z M 265.01892,250.94655 C 273.36294,242.44721 275.66957,254.03984 265.01892,250.94655 z M 229.85369,247.19245 C 214.6822,231.94416 242.81639,219.34031 247.42609,205.52106 C 255.68176,196.77346 270.07363,177.62307 282.10219,190.85753 C 284.26916,205.66847 297.38652,207.00248 307.06593,197.55863 C 317.17933,195.41216 315.43138,203.23781 305.96997,203.00371 C 298.42003,206.60679 278.80256,216.94968 283.00651,221.3221 C 273.83922,227.93923 257.48951,230.1553 248.97687,241.17954 C 244.17369,246.26772 236.90108,250.53262 229.85369,247.19245 z M 280.22686,246.18826 C 276.57608,238.64229 261.82997,245.71125 264.89103,238.64081 C 247.30037,235.35825 293.77641,218.91369 278.57006,235.55 C 280.61141,246.884 306.97432,230.14093 292.87907,242.70544 C 289.16576,245.01346 284.69761,246.9569 280.22686,246.18826 z M 298.47619,244.87745 C 300.88449,240.99637 301.09552,248.82265 298.47619,244.87745 z M 253.47619,241.87745 C 256.84325,237.6868 256.84324,246.06809 253.47619,241.87745 z M 308.11566,237.1836 C 305.76595,231.34008 315.04819,238.37327 308.11566,237.1836 z M 287.47619,234.43647 C 289.89,229.61672 289.97197,236.92256 287.47619,234.43647 z M 297.47619,232.87745 C 299.88449,228.99637 300.09552,236.82265 297.47619,232.87745 z M 311.97619,227.44548 C 299.32774,224.81663 320.65052,211.55158 307.18323,209.75027 C 314.39702,210.17599 339.04493,200.16675 325.16407,214.71513 C 310.92865,211.16416 322.82359,230.21421 311.97619,227.44548 z M 390.85534,223.68188 C 393.06846,212.65622 407.84172,219.85075 394.21185,222.94909 L 390.85534,223.68188 L 390.85534,223.68188 z M 463.14288,222.21078 C 457.78043,216.69429 468.80773,223.26506 463.14288,222.21078 z M 408.92608,220.79642 C 392.81898,218.13426 427.59738,204.38691 410.47619,216.82642 C 412.18573,218.54532 413.60934,224.3864 408.92608,220.79642 z M 384.92657,211.03492 C 368.86461,191.16065 422.263,200.7391 399.96202,207.35599 C 390.77257,199.89125 391.05796,218.61914 384.92657,211.03492 z "
         id="path1583" />
      <path
         style="fill:#493929"
         d="M 287.3031,416.0141 C 285.44589,393.95051 250.42323,405.1702 247.9564,381.28173 C 243.86915,368.01959 222.18701,360.0376 220.81828,351.5454 C 221.81227,339.38622 211.35017,327.91121 200.51084,328.00195 C 201.96695,318.6091 203.15283,307.20871 196.16917,301.64605 C 208.77635,290.54795 228.69119,299.6313 240.53192,306.07369 C 250.05565,305.45128 270.1806,291.18315 272.81337,303.20496 C 265.07975,307.47242 240.43738,303.2745 245.53856,314.50432 C 255.32483,319.71046 266.75986,332.62229 274.21585,316.81831 C 274.04218,297.60612 296.64624,313.82824 306.82906,313.55514 C 307.31053,304.02446 327.40672,308.46935 334.38126,299.02317 C 345.64068,292.63337 355.00899,280.18885 368.74973,280.05947 C 382.83911,278.80411 380.64745,296.33413 367.90731,291.11319 C 352.90505,291.20527 341.74722,309.78523 327.14276,307.39626 C 326.2817,319.61255 351.74263,308.69557 355.60393,300.60961 C 364.81271,291.0855 366.69488,307.69904 375.30626,300.06154 C 386.23915,298.66436 405.15847,294.60055 411.8997,301.45304 C 409.55136,309.91965 392.90465,305.68398 395.23536,311.59858 C 386.58915,303.61435 381.38452,319.36512 370.798,316.33423 C 364.14166,319.57354 352.98106,318.52395 363.83767,311.06254 C 374.02877,315.88565 375.16433,299.53621 364.92365,307.72483 C 346.73612,314.92355 328.32942,323.51333 309.3604,324.91341 C 300.81968,336.03343 311.12487,330.2312 315.16192,329.32737 C 312.49473,339.0526 332.78886,331.99433 335.50068,328.79571 C 325.47476,316.91271 356.58337,324.12024 364.16358,325.14791 C 368.87456,323.8035 383.12949,317.44449 375.32775,327.24418 C 360.51411,338.92616 387.11296,327.61337 393.1863,325.95128 C 400.33762,326.28787 410.83498,316.49109 411.00337,325.2538 C 418.39495,325.25069 412.07979,337.68952 423.09763,335.20168 C 424.93367,321.52767 451.82037,317.91711 444.59524,307.22289 C 453.61094,308.07515 463.23712,305.47468 465.37868,315.72353 C 475.8993,322.1947 491.74967,326.07919 500.26813,318.62761 C 508.79041,319.53691 525.97495,311.08513 516.65147,327.29591 C 515.34248,345.31243 496.48501,352.51794 481.30295,355.48708 C 467.04959,356.80429 457.14178,366.35486 446.05423,373.87973 C 430.83354,380.94805 413.00255,382.49457 399.8427,393.69789 C 380.27951,403.99694 361.1781,419.56653 337.82167,418.2693 C 321.78252,409.52491 303.80427,421.61772 287.3031,416.0141 z M 267.97125,372.87931 C 273.42378,364.2076 256.09992,376.61901 267.97125,372.87931 z M 243.46936,358.62745 C 240.73774,350.58894 226.71132,352.55447 238.7731,358.04785 L 240.92399,358.47208 L 243.46936,358.62745 L 243.46936,358.62745 z M 459.2232,344.75152 C 468.05204,341.49275 459.18073,323.10148 472.92235,325.07311 C 468.13472,312.20876 453.78673,320.28106 451.58711,327.89373 C 461.46505,338.31189 447.48624,337.15303 443.34554,341.17294 C 448.17591,341.8587 454.06267,351.94235 459.2232,344.75152 z M 486.97784,342.11317 C 494.88827,331.6295 457.04706,346.15147 477.12057,344.36523 C 480.54979,344.3469 483.77553,343.1928 486.97784,342.11317 z M 303.42724,336.96895 C 298.43978,329.0948 281.59576,320.14262 275.98997,325.43702 C 282.26701,333.22524 294.79444,332.83451 303.42724,336.96895 z M 351.40747,333.79657 C 360.01928,325.28526 331.64346,333.68717 347.78142,335.36625 C 348.9901,334.84302 350.19878,334.3198 351.40747,333.79657 z M 436.47619,334.06858 C 434.58692,325.32629 429.8601,335.80736 436.47619,334.06858 z M 271.66369,328.19433 C 265.67357,326.48901 273.04284,330.27621 271.66369,328.19433 z M 244.47619,323.41262 C 234.99908,310.99921 235.14794,329.71482 244.47619,323.41262 z M 229.47619,315.37745 C 223.45958,310.41401 229.23986,320.57244 229.47619,315.37745 L 229.47619,315.37745 z M 383.05078,309.75674 C 377.49714,306.01616 377.60092,315.05135 383.05078,309.75674 z M 224.14288,365.21078 C 221.96007,358.41955 230.28864,367.54112 224.14288,365.21078 z M 394.17004,320.23797 C 395.09246,311.79471 403.44834,324.78297 394.17004,320.23797 z M 415.0769,319.04042 C 417.14799,307.65577 426.97343,318.64245 415.0769,319.04042 z M 428.72619,318.21518 C 425.24703,310.13997 438.60307,321.30494 428.72619,318.21518 z M 407.85052,315.41058 C 409.91435,305.41127 427.15916,310.75174 413.40878,315.76588 C 411.93768,316.49854 408.74777,317.65513 407.85052,315.41058 z M 422.47619,307.62994 C 426.35256,299.18414 441.86024,306.04262 427.78439,308.14444 C 426.73186,306.40196 422.82925,310.37364 422.47619,307.62994 z M 462.47619,302.98353 C 451.16682,292.33119 493.05202,295.3416 474.91941,301.11515 C 471.59529,302.57997 465.69893,306.57447 462.47619,302.98353 z M 483.47619,304.04413 C 484.44159,294.86705 490.25959,308.97718 483.47619,304.04413 z M 289.01416,292.93892 C 295.28117,274.94635 303.56031,292.71841 289.01416,292.93892 z M 324.39648,292.47349 C 333.35617,285.01468 323.58598,298.81437 324.39648,292.47349 z M 398.12042,293.11081 C 404.10712,282.80722 408.28743,297.60754 398.12042,293.11081 z M 414.72619,293.1748 C 418.3863,285.41584 427.98019,295.97813 414.72619,293.1748 L 414.72619,293.1748 z M 426.17797,293.24592 C 440.92257,287.10026 424.42651,283.06194 418.60492,279.46116 C 422.8422,264.62586 444.85863,274.08731 453.08706,277.63718 C 462.02368,278.26889 483.45253,269.10095 463.43766,266.09332 C 465.4125,261.56617 476.23034,260.68631 467.91625,255.22971 C 480.97071,249.99147 493.4571,267.98484 482.76337,271.91393 C 496.99107,282.22254 467.53961,277.72029 462.38501,284.16845 C 450.85128,288.8606 438.90581,293.97397 426.17797,293.24592 z M 441.47619,280.77046 C 435.9366,276.38617 437.20366,286.98483 441.47619,280.77046 z M 486.93505,291.81093 C 489.2714,284.53146 496.06737,295.17969 486.93505,291.81093 z M 301.40936,289.00236 C 314.24514,277.66074 303.27966,294.28971 301.40936,289.00236 z M 335.47619,289.1725 C 341.91245,279.10123 347.38406,288.19731 335.47619,289.1725 z M 503.23217,289.0729 C 487.67357,289.48348 497.92563,276.57299 506.852,283.93213 C 511.86723,287.85849 507.9215,290.2265 503.23217,289.0729 z M 398.72619,287.21518 C 398.87876,281.31054 408.68412,290.96341 398.72619,287.21518 L 398.72619,287.21518 z M 243.47619,283.16308 C 238.34909,273.42071 269.90917,285.50273 251.75492,282.59225 C 249.01031,281.81199 246.22322,282.94156 243.47619,283.16308 z M 309.47619,283.014 C 310.0224,270.79838 330.71368,282.11329 315.70508,283.47019 C 314.15645,282.03919 310.85329,284.9256 309.47619,283.014 z M 339.74072,278.38565 C 319.79301,275.77478 358.14915,275.44701 340.94971,279.42218 L 340.27481,278.84355 L 339.74072,278.38565 z M 501.47619,278.86213 C 502.66643,270.68428 511.65657,282.52829 501.47619,278.86213 z M 384.47619,277.37745 C 376.82084,278.33298 350.82098,262.5194 370.97819,264.48326 C 375.8468,276.13349 387.32341,258.11669 393.98826,267.34096 C 400.59081,268.69725 411.58968,263.52211 398.48243,261.93758 C 390.0461,253.8921 371.30424,262.23553 367.11837,255.07984 C 374.12808,250.67562 383.89916,241.95036 368.49437,242.87094 C 350.34554,248.70601 330.60842,250.95774 313.49712,259.30165 C 307.1347,266.51264 292.94661,264.9524 305.88697,255.50136 C 307.13555,250.67971 319.92145,240.54238 314.78813,251.87745 C 321.66714,234.44612 351.48319,248.97958 356.42698,240.24149 C 349.34609,234.79109 326.78777,238.71796 328.04195,234.81712 C 336.36431,230.92226 348.90835,237.06974 352.07647,232.22735 C 362.58225,240.85699 386.64475,231.35354 389.72364,234.17677 C 389.38481,246.22583 410.80931,233.38187 418.64392,238.17881 C 422.11566,232.31594 410.60791,220.64401 422.22327,221.6035 C 421.15099,232.78178 425.20847,227.20429 426.18455,219.89004 C 433.50328,229.27061 440.31261,216.11458 438.51126,212.93975 C 453.82992,208.9268 466.47967,233.34165 462.32441,243.68834 C 456.55878,245.98357 436.75421,251.52843 447.99248,256.99763 C 468.18166,252.33684 447.59214,278.91004 437.18737,267.42143 C 420.05698,264.58201 405.36151,277.45275 389.18543,278.51356 C 387.54675,278.49848 386.04556,277.75671 384.47619,277.37745 z M 421.2893,262.62745 C 418.75477,257.70601 423.06932,249.12867 413.09126,254.19154 C 408.40164,258.69737 416.81243,268.87084 421.2893,262.62745 z M 430.47619,261.87745 C 428.0679,257.99637 427.85684,265.82264 430.47619,261.87745 z M 433.9154,257.94461 C 443.41678,245.12266 416.79073,242.78427 426.32406,255.39986 C 429.58592,257.78198 429.99548,261.83739 433.9154,257.94461 z M 407.03002,250.79032 C 407.02808,243.73016 401.20311,254.73297 407.03002,250.79032 z M 418.47619,247.31843 C 415.9804,244.83235 416.06238,252.13819 418.47619,247.31843 z M 385.47619,244.87745 C 381.8172,239.82482 385.00902,249.26139 385.47619,244.87745 z M 424.47619,238.87745 C 421.43658,234.79126 420.82466,243.37897 424.47619,238.87745 z M 257.63391,275.96902 C 271.83149,270.19636 251.79478,282.5148 257.63391,275.96902 L 257.63391,275.96902 z M 321.47619,276.30158 C 323.58361,266.20299 345.53896,255.24898 350.65872,264.87745 C 339.98758,265.84296 331.13268,272.35219 321.47619,276.30158 z M 288.51623,274.42571 C 275.63077,267.82271 293.38854,269.90963 292.85367,274.75098 L 291.22869,274.76218 L 288.51623,274.42571 L 288.51623,274.42571 z M 266.82128,273.33432 C 269.32709,266.4845 274.45592,280.35064 266.82128,273.33432 z M 293.47619,267.87745 C 295.88449,263.99636 296.09552,271.82265 293.47619,267.87745 z M 313.88244,266.72575 C 320.3475,255.7459 330.42271,269.19585 313.88244,266.72575 z M 258.01892,265.94655 C 259.7778,260.29338 263.18255,270.26011 258.01892,265.94655 z M 265.47619,265.87745 C 264.30006,261.65949 272.8008,270.04349 265.47619,265.87745 z M 245.47619,263.87745 C 248.16174,259.67159 248.83712,267.83991 245.47619,263.87745 z M 235.8562,255.42534 C 237.43161,242.86255 245.87794,262.37028 235.8562,255.42534 z M 360.17004,254.23797 C 359.03068,246.68199 366.05405,257.58654 360.17004,254.23797 z M 265.97619,250.87745 C 268.40053,246.80533 270.3558,254.59819 265.97619,250.87745 z M 363.69433,248.72295 C 368.19121,243.64898 366.19453,252.93729 363.69433,248.72295 L 363.69433,248.72295 z M 229.8432,245.26706 C 212.60606,233.68163 245.65306,225.95808 242.19564,212.86882 C 252.70112,204.43819 263.74983,181.41758 278.9301,188.613 C 292.59062,199.27738 289.74878,216.53523 273.97963,222.66532 C 260.83542,230.58452 249.3394,242.23314 234.8453,247.38536 C 232.96297,247.52692 231.08657,246.66253 229.8432,245.26706 z M 257.97619,210.86375 C 250.1266,203.48629 251.98643,218.58635 257.97619,210.86375 z M 279.93505,244.81092 C 285.912,236.09409 294.61545,249.44952 279.93505,244.81092 z M 265.47619,242.57833 C 282.21409,235.81325 260.11219,237.23686 262.00392,234.85277 C 268.26645,233.70925 285.18919,222.44729 276.84429,236.47012 C 275.12534,239.66911 269.2619,246.91216 265.47619,242.57833 z M 289.93505,240.81092 C 290.50634,235.14709 295.6439,244.59246 289.93505,240.81092 z M 279.47619,239.34607 C 282.33931,234.03519 283.29438,243.31223 279.47619,239.34607 z M 367.47619,233.41263 C 358.57713,226.52438 370.4161,219.16891 370.2015,230.82024 C 369.96087,231.80593 368.13976,237.48356 367.47619,233.41263 z M 396.52636,232.9712 C 391.21508,222.3011 405.00524,237.88783 396.52636,232.9712 z M 340.47619,227.91263 C 342.75119,218.69161 364.0679,223.87702 350.05977,215.01646 C 344.34359,214.54576 330.47355,221.28464 339.35631,210.45613 C 351.41274,201.66194 374.90023,223.68122 352.80759,227.23776 C 348.75668,224.96129 344.47327,229.61909 340.47619,227.91263 z M 310.47619,225.98269 C 301.63711,213.0996 327.70213,225.9598 310.47619,225.98269 L 310.47619,225.98269 z M 394.14923,223.21714 C 396.7467,214.61886 401.50078,226.11585 394.14923,223.21714 z M 410.33215,220.40006 C 397.11996,217.67184 414.86342,210.5468 410.33215,220.40006 z M 429.46704,215.36644 C 429.63039,209.28099 435.04228,219.49684 429.46704,215.36644 z M 315.47619,213.87745 C 313.05615,205.02878 339.17087,207.04897 322.70126,214.44322 C 320.71104,216.34281 317.13181,216.10522 315.47619,213.87745 z M 308.88543,211.50154 C 308.25836,203.6494 314.20288,215.3957 308.88543,211.50154 z M 384.28942,206.16882 C 379.12589,188.83171 414.98508,211.02913 392.33955,204.87745 C 388.9043,207.64015 385.84254,215.78894 384.28942,206.16882 L 384.28942,206.16882 z M 355.22619,204.08743 C 352.56232,195.35906 325.92807,202.32682 343.00708,192.73436 C 348.24399,191.07446 364.87995,197.89731 355.22619,204.08743 z "
         id="path1581" />
      <path
         style="fill:#353026"
         d="M 289.97619,417.9321 C 284.55552,398.06113 262.33562,402.77304 251.2787,388.82582 C 239.19018,380.27361 246.98631,365.07855 243.61774,356.34625 C 236.26557,351.62128 213.94814,352.04927 221.14205,339.91391 C 225.95331,335.71346 204.18167,334.48811 210.38101,325.69992 C 204.47896,336.39255 193.80573,322.95383 204.47619,318.1261 C 190.71037,310.10629 199.87268,290.46665 214.75313,298.38654 C 229.75505,293.11757 239.90162,318.66988 253.6823,301.91999 C 270.0402,300.79355 224.6443,313.2389 248.27471,317.11988 C 262.71021,321.90492 242.07824,325.57456 238.4962,318.20251 C 232.08222,313.86947 220.53146,315.37114 233.33867,321.0908 C 252.13765,332.20832 275.71657,325.83542 294.93394,335.68632 C 284.5204,342.72758 291.87453,347.21763 300.13167,340.9787 C 315.29063,328.02594 336.3262,338.91959 353.316,331.56837 C 356.93302,330.90369 320.56751,327.9869 342.04657,322.92499 C 353.68544,320.24284 366.09205,329.89883 375.9934,322.5696 C 377.69649,328.40601 359.51883,334.93532 375.06286,333.80552 C 385.81607,329.83789 409.94275,320.31495 414.41163,331.48647 C 418.61094,338.37371 435.21429,341.78327 426.13585,332.53643 C 432.34464,331.43205 443.72009,339.55224 433.6505,329.87745 C 416.39769,321.67876 452.31029,323.28547 447.14254,310.94078 C 459.74785,299.74746 467.10128,324.01426 451.42448,323.59588 C 450.05106,330.77572 457.96987,337.15877 450.1089,336.86809 C 440.02466,336.32206 440.36884,347.51793 451.51168,345.77339 C 462.24161,347.29042 485.88951,346.70548 487.46655,338.2953 C 478.25075,337.76492 456.32839,347.05198 465.34395,328.6907 C 470.4278,330.65894 481.54271,329.60837 475.25368,321.87745 C 488.97509,331.27962 502.5298,312.23284 516.44199,319.8963 C 519.66442,334.63661 505.96928,348.7144 493.11456,353.66779 C 479.90871,357.60616 463.17019,353.05158 455.45815,367.7693 C 439.35705,379.22419 418.42477,380.71946 402.14381,392.17278 C 383.92626,402.55491 365.95825,414.84344 344.89541,418.49085 C 326.901,414.1194 308.13086,415.23166 289.97619,417.9321 z M 272.97619,382.87745 C 267.8699,378.54435 270.91287,386.63236 272.97619,382.87745 L 272.97619,382.87745 z M 258.97619,377.87745 C 254.80317,370.71721 254.80316,385.03768 258.97619,377.87745 z M 268.22619,374.22947 C 282.8978,366.54541 246.41792,371.91963 266.00871,374.47878 C 266.74787,374.39568 267.48703,374.31258 268.22619,374.22947 z M 248.8944,370.27046 C 252.15692,361.88994 238.32267,373.46865 248.8944,370.27046 z M 285.35119,365.25245 C 295.45314,358.49396 268.83634,365.25882 285.35119,365.25245 z M 249.47619,356.81843 C 247.59883,354.50161 247.38952,360.50638 249.47619,356.81843 z M 435.23242,347.62745 C 429.50431,341.71145 429.86153,352.00403 435.23242,347.62745 z M 228.47619,346.37745 C 222.86085,339.64788 223.88642,352.35231 228.47619,346.37745 z M 252.97619,344.87745 C 248.56,340.78528 251.33278,348.789 252.97619,344.87745 L 252.97619,344.87745 z M 395.11456,336.37745 C 396.62231,325.73805 388.21716,341.73525 395.11456,336.37745 z M 468.47619,335.81843 C 465.49647,332.53644 467.24819,340.83566 468.47619,335.81843 z M 244.97619,331.87745 C 240.56,327.78528 243.33278,335.789 244.97619,331.87745 L 244.97619,331.87745 z M 230.01733,326.81093 C 229.04775,320.37823 222.91819,332.66394 230.01733,326.81093 z M 220.33294,319.98713 C 221.85664,314.91649 211.18013,324.32133 220.33294,319.98713 z M 229.97619,361.62191 C 221.25458,362.05166 216.97484,348.72411 227.68607,356.00354 C 230.23839,360.08447 242.04697,358.14962 232.09131,362.39277 L 229.97619,361.62191 L 229.97619,361.62191 z M 310.70056,330.70439 C 316.55375,325.03261 315.96806,335.6794 310.70056,330.70439 z M 298.33081,328.76642 C 290.98633,324.98026 267.7008,318.70278 279.33047,309.09097 C 291.13643,308.8856 304.11234,321.56652 312.46837,309.53089 C 324.58038,307.92768 334.47545,320.96479 345.10362,308.1616 C 351.69279,301.3017 362.03268,299.06574 367.88336,302.99764 C 379.48691,298.63418 402.527,296.9065 408.72699,301.05396 C 397.68578,308.39049 381.34323,313.04402 369.74842,314.75404 C 373.32712,307.92115 375.97417,300.97062 365.63111,306.90692 C 348.01636,311.07062 332.72412,326.07711 313.64647,322.19867 C 308.65999,324.48896 304.41287,330.1173 298.33081,328.76642 z M 324.47619,316.62745 L 322.71627,316.93833 L 324.47619,316.62745 L 324.47619,316.62745 z M 383.8797,310.37317 C 380.35873,304.03453 374.22719,316.43457 383.87969,310.37316 L 383.8797,310.37317 z M 269.47619,324.95924 C 264.89297,314.02937 279.70911,328.36572 269.47619,324.95924 L 269.47619,324.95924 z M 467.47619,318.87745 C 471.87657,311.02491 478.21038,326.88844 467.47619,318.87745 z M 358.47619,318.84607 C 360.98281,315.53991 363.44991,320.8413 358.47619,318.84607 z M 417.49627,316.35328 L 419.08661,315.97994 L 417.49627,316.35328 L 417.49627,316.35328 z M 428.47619,316.87745 C 433.34945,311.94496 433.34941,321.80993 428.47619,316.87745 z M 362.47619,314.37745 C 365.77876,303.18182 366.72888,325.36833 362.47619,314.37745 L 362.47619,314.37745 z M 411.65814,312.37745 C 418.93062,304.26147 412.86686,318.77362 411.65814,312.37745 z M 443.03002,308.96458 C 441.44584,302.46184 448.42586,310.66274 443.03002,308.96458 z M 423.97619,306.87745 C 428.3924,302.78528 425.61959,310.78901 423.97619,306.87745 L 423.97619,306.87745 z M 430.15155,306.21946 C 430.8586,296.46773 438.40249,309.13096 430.15155,306.21946 z M 261.47619,304.32641 C 265.69084,295.80192 278.21013,302.96658 266.01347,305.30892 L 263.91408,305.04945 L 261.47619,304.32641 L 261.47619,304.32641 z M 324.97619,304.87745 C 329.3924,300.78528 326.61959,308.78901 324.97619,304.87745 L 324.97619,304.87745 z M 332.72619,303.65696 C 341.23502,294.62865 358.13889,274.22739 370.32703,286.92964 C 384.70538,276.87957 371.40522,298.86508 363.80538,289.50518 C 353.04965,293.10862 345.69062,308.9417 332.72619,303.65696 z M 463.00799,302.02218 C 461.17398,291.45187 484.00121,301.86851 466.32406,304.38997 C 463.99217,304.9079 463.66964,304.10393 463.00799,302.02218 z M 400.47619,291.87745 C 409.60938,287.34296 397.08158,295.93586 400.47619,291.87745 z M 415.47619,291.87745 C 422.62752,287.01173 422.17151,296.58261 415.47619,291.87745 z M 427.22619,292.21518 C 434.08112,289.81506 427.61877,294.54535 427.22619,292.21518 z M 442.97619,290.75499 C 432.5867,293.15001 429.10997,275.37094 417.82191,280.99524 C 426.90154,258.03968 450.59467,288.38991 465.02839,276.10639 C 474.09074,273.71153 478.96742,267.17725 466.1683,267.35856 C 459.9452,260.64013 481.52531,262.91763 470.97956,256.61563 C 492.77898,253.26446 480.10999,285.82765 463.87171,283.09293 C 455.75032,282.71461 449.79666,293.056 442.97619,290.75499 z M 449.47619,286.93647 C 446.18206,279.10082 446.02688,291.47726 449.47619,286.93647 L 449.47619,286.93647 z M 442.03002,281.79033 C 437.65256,274.45959 433.0971,287.98172 442.03002,281.79033 z M 479.97064,261.87132 C 472.1412,256.14295 483.9032,269.42053 479.97064,261.87132 z M 500.66937,288.19622 C 486.34561,281.16164 511.4237,282.60858 506.99278,287.7335 C 504.91212,288.16709 502.78282,288.18339 500.66937,288.19622 z M 290.97619,286.87745 C 296.79792,282.47102 294.41815,290.65957 290.97619,286.87745 L 290.97619,286.87745 z M 399.20715,286.22151 C 404.48179,284.94903 401.78508,287.90878 399.20715,286.22151 z M 242.47619,281.87745 C 246.79688,276.95061 250.38593,283.33254 242.47619,281.87745 z M 311.47619,281.87745 C 315.99918,277.38038 315.15037,285.96747 311.47619,281.87745 z M 319.47619,280.87745 C 322.16174,276.67159 322.83712,284.83991 319.47619,280.87745 z M 341.97619,277.87745 C 347.79792,273.47102 345.41815,281.65957 341.97619,277.87745 L 341.97619,277.87745 z M 384.97619,277.38736 C 365.97823,277.09251 385.79335,258.03393 394.4492,267.59233 C 400.55841,269.12621 414.1928,264.2826 400.76578,261.83827 C 388.80354,264.76765 390.53025,246.41654 379.79363,257.06654 C 360.95289,264.64406 376.14817,246.10133 378.9817,245.16021 C 371.28332,245.74477 342.10024,233.88387 361.81911,235.9562 C 370.37313,243.31143 387.67826,226.07538 390.53565,241.83925 C 398.37184,232.24045 419.3316,246.34761 422.67176,236.74054 C 412.70278,230.11089 428.18352,229.48036 427.16137,220.39595 C 438.92538,233.58732 437.37182,204.16522 450.45916,216.17905 C 460.22115,225.07694 469.10508,246.55471 449.86408,247.72756 C 440.16259,252.74684 447.76234,262.60292 456.52361,259.50217 C 443.37388,275.16075 418.07176,260.52028 402.39879,273.6862 C 397.10645,276.60566 391.08576,281.54198 384.97619,277.38736 z M 420.92913,264.71694 C 424.48819,256.73845 420.78035,244.92179 412.43708,254.61419 C 409.21562,260.50536 414.62693,267.17468 420.92913,264.71694 z M 431.47619,262.55177 C 450.81114,255.16349 415.84797,235.31191 425.91159,253.48455 C 430.929,255.05291 423.02186,268.96891 431.47619,262.55177 z M 396.47619,250.81843 C 391.43272,245.76512 394.49007,256.79211 396.47619,250.81843 z M 406.8944,252.27046 C 413.10783,242.73119 394.8272,250.88406 406.8944,252.27046 z M 418.47619,247.93647 C 416.8954,242.9373 415.726,251.14009 418.47619,247.93647 z M 386.28552,244.12723 C 382.46716,238.06706 382.70818,252.24027 386.28552,244.12723 z M 453.13208,233.36432 C 445.81446,225.72726 453.16865,240.82738 453.13208,233.36432 z M 484.47619,276.87745 C 487.67062,274.0535 490.82983,277.79879 484.47619,276.87745 z M 289.68872,274.68995 C 286.67856,267.42045 297.65418,277.79696 289.68872,274.68995 z M 327.72253,268.63841 C 330.50451,261.56654 349.98747,263.57172 335.68808,267.71445 C 333.51049,266.06805 328.4459,272.59376 327.72253,268.63841 z M 366.88891,268.93467 C 351.47153,259.75353 383.67799,269.66581 366.88891,268.93467 L 366.88891,268.93467 z M 314.72015,265.62745 C 327.17049,258.78321 320.9244,269.82163 314.72015,265.62745 z M 299.47619,263.90313 C 307.38151,252.66861 321.44474,246.7549 333.04121,244.91064 C 337.54674,246.40899 357.66667,243.23879 342.9778,247.74393 C 328.7984,253.98096 313.62997,257.60978 299.47619,263.90313 z M 345.48455,263.92814 C 346.73145,255.31545 355.66968,268.88298 345.48455,263.92814 L 345.48455,263.92814 z M 352.47619,246.91263 C 359.43788,239.19224 363.06494,247.91452 352.47619,246.91263 z M 229.47619,243.99044 C 216.79114,231.27905 249.2615,221.93548 243.97374,211.9688 C 255.52189,206.8768 266.18781,174.71649 279.14515,191.93304 C 283.20198,200.86918 295.55344,212.34152 279.09973,217.42447 C 265.46179,228.6561 250.84101,238.7301 235.10407,246.79885 C 233.09666,246.12685 231.3218,245.00119 229.47619,243.99044 z M 259.53942,211.30124 C 254.09764,200.42814 247.04856,218.75526 259.53942,211.30124 z M 269.27618,210.67745 C 272.59441,202.98569 260.02735,214.82132 269.27618,210.67745 z M 281.97619,244.87745 C 286.5141,240.05173 287.30849,248.7852 281.97619,244.87745 z M 269.22619,240.6184 C 280.71244,234.25004 250.22604,237.04958 267.42606,233.68355 C 276.47298,229.33741 283.52007,234.98328 272.00718,240.10203 C 269.30898,242.29673 262.59365,245.00975 269.22619,240.6184 z M 335.47619,234.37745 C 349.79114,228.79572 339.88184,241.21939 335.47619,234.37745 z M 277.47619,229.46078 C 280.63678,223.65287 280.26013,233.95297 277.47619,229.46078 z M 365.0462,228.99076 C 366.76783,220.2273 372.24646,233.52474 365.0462,228.99076 z M 352.47619,225.99549 C 354.65732,219.61277 355.17758,228.65418 352.47619,225.99549 z M 346.13079,224.33519 C 350.74338,219.58368 348.39472,230.25196 346.13079,224.33519 z M 308.65289,223.23463 C 312.58608,213.18882 313.8496,228.92756 308.65289,223.23463 z M 357.08483,221.3007 C 351.95429,210.532 371.61993,220.82343 356.94236,223.20918 C 356.98985,222.57302 357.03734,221.93686 357.08483,221.3007 z M 406.05627,218.00707 C 406.76952,209.2727 410.89483,219.91871 406.05627,218.00707 L 406.05627,218.00707 z M 321.0462,212.99076 C 322.66789,204.79514 327.66524,212.69166 321.0462,212.99076 z M 342.47619,211.48685 C 351.19053,204.18369 356.06304,219.48818 342.47619,211.48685 z M 384.66534,205.39322 C 380.35063,194.62192 402.93113,204.27649 387.2303,205.37722 L 385.89648,207.89228 L 384.66534,205.39322 L 384.66534,205.39322 z M 356.00738,201.58432 C 354.82907,190.93255 359.32589,206.7333 356.00738,201.58432 z M 337.80725,198.29782 C 339.07546,187.30129 354.93539,197.75474 340.9788,198.30564 L 337.80725,198.29782 L 337.80725,198.29782 z M 349.97619,196.87745 C 354.31765,192.41479 356.64962,201.0289 349.97619,196.87745 z "
         id="path1579" />
      <path
         style="fill:#2e2618"
         d="M 287.22619,415.16711 C 283.18453,394.89584 253.30479,401.75099 247.36368,382.59899 C 240.71576,374.27974 250.25203,369.33614 255.84007,365.14457 C 242.3203,372.78475 257.2702,345.39269 242.24505,355.12137 C 235.67772,346.49087 249.05856,339.34199 254.92042,346.96769 C 251.41663,343.21745 249.6829,337.87689 257.21337,339.95129 C 245.6256,333.92807 228.14404,349.07645 220.97651,334.18183 C 198.25444,339.00327 231.57105,310.40367 225.66016,322.99541 C 214.04519,329.46231 239.52417,326.29625 232.70814,333.61057 C 243.04696,337.95248 247.13709,327.90934 240.64201,328.50295 C 257.52075,325.22928 274.21655,333.02873 290.55163,333.03254 C 295.81984,340.3303 273.26006,340.01763 289.01699,345.99072 C 298.93166,350.23612 299.02262,338.47073 306.10788,340.9579 C 316.77302,331.33308 333.26473,334.22316 346.76995,337.89418 C 363.38746,334.28059 352.26321,325.71249 341.28179,328.39991 C 333.16736,320.52371 356.38105,322.99228 361.48563,326.41409 C 367.27575,326.99327 382.85855,318.21434 372.28484,328.44984 C 356.87121,335.26909 377.51678,338.64852 382.21555,331.08578 C 393.0421,323.147 389.61494,340.4876 393.44119,338.73729 C 394.41546,329.40119 408.87014,320.42258 414.30266,330.15094 C 415.35796,333.36848 422.88058,336.46554 420.57863,343.64412 C 424.29288,337.18526 435.97285,344.02095 427.16288,333.92672 C 426.2738,329.09044 446.80504,342.93903 436.22808,332.58033 C 423.56385,323.62171 433.77684,324.09117 441.36856,322.92877 C 439.13534,316.67511 449.73563,314.52793 452.9388,309.81587 C 466.47176,313.54137 457.0512,324.75746 448.64094,326.42072 C 435.20221,338.17526 447.74838,357.09319 463.0294,345.4623 C 472.07557,341.26167 495.83202,352.84599 496.32003,341.21552 C 491.21478,329.80418 457.88777,348.45903 474.7398,332.21299 C 477.81193,315.11804 502.87438,335.06372 508.5686,329.80439 C 496.0031,327.66476 498.80561,315.52105 510.72318,318.64434 C 526.15965,322.56449 509.79679,341.43312 502.52857,347.24026 C 491.93343,354.7335 478.39527,357.08638 465.65356,355.87745 C 452.82106,377.5407 424.53357,377.07563 405.20453,389.78189 C 385.16455,401.00435 365.70733,415.89319 342.03785,417.86455 C 324.44187,410.48092 305.34949,418.35809 287.22619,415.16711 z M 273.47619,390.87745 C 271.0679,386.99637 270.85684,394.82264 273.47619,390.87745 z M 275.47619,382.37158 C 269.62529,374.88659 257.60264,387.47869 270.795,385.33995 C 272.53156,385.10034 275.32911,384.62471 275.47619,382.37158 z M 256.78619,383.39239 C 264.87005,376.63684 277.63568,369.73867 285.74475,368.77974 C 294.76291,356.21539 276.34723,360.11817 273.76255,368.43709 C 263.77655,366.30345 246.635,374.66115 254.35332,385.15739 L 255.51486,384.69786 L 256.78619,383.39239 L 256.78619,383.39239 z M 292.7257,354.72697 C 284.65501,350.48387 278.91507,361.29819 289.98107,357.4568 L 291.37892,356.33142 L 292.7257,354.72697 L 292.7257,354.72697 z M 414.47619,356.37745 C 411.15614,351.36783 410.17425,362.80365 414.47619,356.37745 z M 295.47619,348.75943 C 292.75776,346.5566 294.07088,354.26681 295.47619,348.75943 z M 417.8944,350.27046 C 422.03274,344.666 409.42748,351.57525 417.8944,350.27046 z M 437.28979,348.14811 C 427.31529,338.11926 425.02526,356.93806 437.28979,348.14811 z M 405.47619,345.84227 C 399.08603,341.08197 401.0883,353.74415 405.47619,345.84227 z M 301.47619,346.37745 C 299.33877,341.69283 299.70651,351.06066 301.47619,346.37745 z M 317.5567,346.78358 C 306.52124,345.92769 322.67881,349.98588 317.5567,346.78358 z M 509.25061,338.96873 C 513.39663,327.52771 500.14196,343.6233 507.47615,340.24244 L 509.25058,338.96873 L 509.25061,338.96873 z M 337.247,339.06495 C 333.68056,334.33233 333.32693,343.97289 337.247,339.06495 z M 272.47619,337.87745 C 270.0679,333.99637 269.85684,341.82264 272.47619,337.87745 z M 267.47619,334.87745 C 260.82943,329.6906 265.73472,339.21575 267.47619,334.87745 L 267.47619,334.87745 z M 496.97619,334.87745 C 492.63475,330.41479 490.30274,339.02889 496.97619,334.87745 z M 231.747,361.27328 C 235.04976,359.67312 233.55181,363.29521 231.747,361.27328 z M 226.21783,358.75276 C 219.8523,352.12497 233.93776,359.73327 226.21783,358.75276 z M 219.97619,354.87745 C 221.60561,351.30567 223.23357,358.38483 219.97619,354.87745 z M 231.14288,349.21078 C 229.86701,339.93861 241.45834,353.86749 231.14288,349.21078 z M 219.47619,342.87745 C 226.33494,334.20882 225.6949,350.12184 219.47619,342.87745 z M 453.47619,334.87745 C 455.88449,330.99636 456.09552,338.82265 453.47619,334.87745 z M 465.60516,331.26112 C 469.88383,324.53508 472.86336,339.57591 465.60516,331.26112 L 465.60516,331.26112 z M 312.27618,329.67746 C 317.72434,326.77182 312.65088,334.12562 312.27618,329.67746 L 312.27618,329.67746 z M 200.47619,328.87745 C 206.51429,323.87535 206.51425,333.87955 200.47619,328.87745 z M 295.47619,328.14027 C 290.98686,323.64074 291.32269,317.20544 282.34462,318.38717 C 265.49611,306.91759 298.07579,312.76124 302.80729,315.618 C 309.39219,312.37109 328.15258,307.86719 317.85414,320.99694 C 309.74061,321.34065 304.02876,330.30926 295.47619,328.14027 z M 200.14672,326.21466 C 216.92742,320.19969 185.82944,295.69139 210.20993,299.06946 C 220.98102,290.76629 247.91117,315.66481 226.61162,312.75986 C 217.34527,316.35516 210.93554,326.55245 200.14672,326.21466 z M 232.14288,324.21078 C 231.14567,317.21356 241.7753,329.30208 232.14288,324.21078 z M 270.11456,323.37745 C 272.64723,317.11431 273.91317,328.26758 270.11456,323.37745 z M 320.70294,323.76968 C 318.34491,313.24429 334.85119,323.29125 320.70294,323.76968 z M 252.72619,321.15918 C 248.60817,316.26238 259.46461,322.15101 252.72619,321.15918 z M 240.22619,318.72668 C 229.65607,307.10523 255.06718,322.84861 240.22619,318.72668 L 240.22619,318.72668 z M 467.93505,318.81093 C 470.53268,312.87782 474.80386,323.78864 467.93505,318.81093 z M 328.47619,317.13226 C 339.49899,315.74354 356.75675,294.94794 363.38478,304.20366 C 355.2064,313.86247 340.77791,317.98746 328.47619,317.13226 z M 417.47619,316.93647 C 421.53095,311.48269 418.78653,320.03353 417.47619,316.93647 z M 429.47619,316.87745 C 426.99658,312.99858 435.56559,320.16394 429.47619,316.87745 z M 363.14288,315.21078 C 359.57167,307.46614 370.37871,317.83103 363.14288,315.21078 z M 369.47619,314.22213 C 375.59883,311.42936 377.19477,300.46363 368.1344,305.05739 C 378.41795,295.49412 401.74848,301.01546 409.3039,300.58843 C 403.98453,310.39158 378.0844,301.62438 380.37525,312.40823 C 395.32989,308.70558 370.78137,318.45801 369.47619,314.22213 z M 241.47619,307.91262 C 249.92627,299.68939 250.143,309.79951 241.47619,307.91262 z M 430.47619,305.48443 C 434.00773,297.6159 434.60628,310.46503 430.47619,305.48443 z M 251.59808,304.97393 C 254.69761,294.72558 266.53215,305.77561 251.59808,304.97393 z M 262.14288,305.21078 C 266.42855,294.70572 275.97312,306.132 262.14288,305.21078 z M 334.22619,303.57803 C 339.1493,292.96359 360.05817,278.64841 367.21058,285.1493 C 358.88852,294.16012 346.99258,303.44731 334.22619,303.57803 z M 464.06121,304.12913 C 461.9806,293.93792 482.72676,298.61114 467.67573,303.01032 L 465.99532,303.56586 L 464.06121,304.12913 L 464.06121,304.12913 z M 399.747,292.27328 C 403.04976,290.67312 401.55181,294.29521 399.747,292.27328 z M 415.97619,291.87745 C 421.10765,287.05455 423.11479,296.01161 415.97619,291.87745 z M 369.8977,290.5336 C 370.65451,280.8948 385.16605,282.61403 374.5377,289.65879 L 372.46332,290.24678 L 369.8977,290.5336 L 369.8977,290.5336 z M 439.57476,289.58728 C 429.65806,286.44035 433.5969,283.76561 441.05174,281.68437 C 443.05063,278.51004 407.83744,285.32428 423.98049,273.45096 C 438.53701,269.89331 456.5603,287.38068 470.97619,273.55152 C 483.57656,265.43039 480.13751,286.49578 468.62372,279.08216 C 462.61659,289.04405 446.16021,282.70922 443.06884,290.47467 C 441.90415,290.17887 440.73946,289.88307 439.57476,289.58728 z M 501.97876,288.14047 C 485.03618,282.43713 512.05282,281.44411 506.2147,288.62224 C 504.80272,288.46165 503.39074,288.30106 501.97876,288.14047 z M 291.97619,286.87745 C 297.08248,282.54435 294.0395,290.63236 291.97619,286.87745 L 291.97619,286.87745 z M 400.22619,286.21518 C 407.08112,283.81506 400.61877,288.54535 400.22619,286.21518 z M 311.97619,281.87745 C 316.2641,277.54963 312.38807,285.54408 311.97619,281.87745 z M 341.97619,277.87745 C 347.79792,273.47102 345.41815,281.65957 341.97619,277.87745 L 341.97619,277.87745 z M 388.97619,278.22883 C 377.27869,280.07919 373.19281,267.51679 385.45004,263.93038 C 390.27988,277.78713 421.17569,255.36559 415.99874,270.67633 C 406.33181,270.27115 398.32162,277.00337 388.97619,278.22883 z M 289.01892,273.94655 C 291.52733,267.00874 296.6598,279.54984 289.01892,273.94655 z M 327.47619,268.99877 C 334.2444,262.93675 344.90865,268.00235 330.97619,268.87745 C 330.31255,269.59455 327.96619,270.64118 327.47619,268.99877 z M 367.29937,269.16826 C 353.78937,260.3716 382.35747,269.25427 367.29937,269.16826 L 367.29937,269.16826 z M 467.13116,267.04871 C 468.01995,256.36697 485.35418,272.07155 468.64991,268.27497 C 468.14366,267.86622 467.63741,267.45746 467.13116,267.04871 z M 438.99664,266.21061 C 430.01731,270.95424 417.25091,261.48861 424.70188,251.99824 C 423.38149,267.0113 440.0588,262.20223 435.32784,249.90777 C 425.87298,235.46977 411.11642,257.00791 408.67062,263.22026 C 400.21518,264.87595 379.19406,255.64369 397.21694,250.72847 C 390.36293,249.04228 364.58877,266.67484 372.17489,251.84083 C 386.87592,240.72374 407.05453,237.25819 425.27453,239.21057 C 414.85934,235.65399 420.8749,228.8783 425.43208,227.17479 C 429.27658,219.97549 441.73686,219.75241 445.04574,214.48089 C 460.94068,213.32621 449.59033,232.67768 450.49538,235.73539 C 455.989,233.74519 459.88525,231.01877 461.23213,240.21533 C 455.09352,244.51628 431.73573,256.69581 451.54968,257.99983 C 464.54473,259.28679 442.50261,272.86033 438.99664,266.21061 z M 407.47619,251.89061 C 409.67539,234.46316 396.30088,251.23737 407.47619,251.89061 z M 419.2995,247.54458 C 415.3918,241.3237 415.65871,254.30103 419.2995,247.54458 z M 432.47619,235.87745 C 430.0679,231.99637 429.85684,239.82264 432.47619,235.87745 z M 439.47619,233.87745 C 436.43658,229.79126 435.82466,238.37897 439.47619,233.87745 z M 433.47619,226.87745 C 430.43658,222.79126 429.82466,231.37897 433.47619,226.87745 z M 315.47619,265.37745 C 329.12383,256.20118 318.24685,271.1753 315.47619,265.37745 z M 299.47619,263.97623 C 302.33342,252.94071 323.82851,251.96819 323.78012,247.10568 C 322.4104,239.9877 362.63604,243.62596 339.43715,249.08874 C 326.30429,254.53685 311.89084,256.81529 299.47619,263.97623 z M 345.59808,263.97394 C 345.66501,254.83441 355.79444,269.06772 345.59808,263.97394 L 345.59808,263.97394 z M 339.747,263.27328 C 343.04976,261.67311 341.55181,265.29521 339.747,263.27328 z M 352.47619,246.85601 C 357.57068,238.47523 360.31371,250.34111 352.47619,246.85601 z M 233.34338,245.15873 C 212.20457,236.41833 246.2436,229.47541 248.85819,228.28607 C 236.72942,219.465 262.75475,210.10276 271.48774,210.02356 C 279.23624,208.82944 288.14453,194.2954 285.72083,209.77305 C 277.33733,224.36383 257.3526,225.62168 247.49343,238.87745 C 242.88863,240.92798 239.04957,247.25893 233.34338,245.15873 z M 281.97619,244.87745 C 286.5141,240.05173 287.30849,248.7852 281.97619,244.87745 z M 373.97619,243.12462 C 367.94181,245.59784 342.33177,234.34008 360.19377,234.90549 C 365.51178,246.59523 392.50464,224.43043 384.22619,242.59001 C 381.25317,245.10921 377.32172,243.60397 373.97619,243.12462 z M 268.875,241.35341 C 279.00455,238.11299 263.24476,245.86733 268.875,241.35341 z M 263.47619,235.87745 C 269.86724,230.86796 268.49519,240.59692 263.47619,235.87745 z M 273.98626,235.89376 C 262.35524,233.78495 282.52342,232.70758 273.98626,235.89376 z M 335.9237,234.34095 C 347.66056,230.62913 338.36142,240.03235 335.9237,234.34095 z M 365.0462,228.99076 C 366.76783,220.2273 372.24646,233.52474 365.0462,228.99076 z M 240.03002,226.96458 C 238.44583,220.46183 245.42587,228.66274 240.03002,226.96458 z M 352.47619,225.93647 C 356.53096,220.4827 353.78653,229.03354 352.47619,225.93647 z M 346.46704,224.38846 C 354.92134,219.28136 343.30778,230.16707 346.46704,224.38846 z M 308.47619,223.57745 C 311.30946,212.54399 315.15126,229.33825 308.47619,223.57745 z M 357.24627,221.29993 C 348.85392,211.15874 373.88201,218.00427 357.24627,221.29993 L 357.24627,221.29993 z M 406.05627,218.00707 C 406.76952,209.2727 410.89483,219.91871 406.05627,218.00707 L 406.05627,218.00707 z M 321.0462,212.99076 C 322.66789,204.79514 327.66524,212.69166 321.0462,212.99076 z M 342.47619,211.48685 C 351.19053,204.18369 356.06304,219.48818 342.47619,211.48685 z M 263.47619,205.89384 C 247.23459,209.15333 266.12242,194.53756 263.69985,190.13042 C 282.91573,175.63456 286.7694,207.67904 263.47619,205.89384 z M 384.18646,202.87745 C 386.95039,195.38394 388.62663,207.46032 384.18646,202.87745 z M 338.11651,199.18443 C 339.27877,188.50652 353.77285,197.09369 338.11651,199.18443 z "
         id="path1577" />
      <path
         style="fill:#15140d"
         d="M 291.93731,416.8146 C 300.64747,414.90365 308.8378,403.21047 294.70569,409.31114 C 282.50507,408.52568 273.55418,396.60459 260.34475,397.11946 C 251.00549,390.39494 260.81309,378.75111 263.6481,393.41329 C 275.20458,405.53169 277.98884,369.4786 280.09957,375.71701 C 293.71348,369.34844 293.61261,350.79371 307.69464,344.55878 C 318.91113,336.04618 334.47105,347.60548 347.58348,338.9215 C 360.40107,334.00761 375.95707,332.23935 387.18228,341.83012 C 394.09946,347.27753 415.12615,353.93866 409.03159,339.02461 C 401.31847,344.94069 393.46942,339.13802 403.44459,332.67649 C 418.03398,325.45686 422.55139,346.37156 411.98591,354.43825 C 407.55312,367.53934 426.10408,343.37075 433.1132,351.81222 C 445.18803,351.62586 454.62445,350.41968 464.83942,347.06777 C 476.00561,349.04122 471.8768,362.1666 461.38638,358.6242 C 455.08016,371.55759 438.63519,377.74087 425.02171,378.50431 C 428.19146,361.77813 405.61459,382.00114 410.62426,386.40419 C 388.20709,397.40288 368.07512,415.26183 342.30194,417.67804 C 325.96502,412.41992 308.59248,414.59328 291.93731,416.8146 z M 322.47619,409.06857 C 320.76891,399.82736 314.89114,413.19989 322.47619,409.06857 z M 386.11944,398.36473 C 383.3698,385.22395 373.534,406.28496 386.11944,398.36473 z M 349.47619,386.87745 C 347.0679,382.99637 346.85684,390.82264 349.47619,386.87745 z M 324.47619,384.87745 C 319.86114,377.03584 319.86113,392.71904 324.47619,384.87745 z M 437.17486,370.71258 C 447.47378,371.16499 452.79019,356.38378 438.91174,364.001 C 432.41151,364.44097 423.63166,377.66008 437.17486,370.71258 z M 414.46984,369.12745 C 404.66449,358.08412 405.97399,372.24375 414.46984,369.12745 z M 456.47619,361.87745 C 453.10914,357.6868 453.10913,366.06809 456.47619,361.87745 z M 319.47619,355.37745 C 312.0457,347.75022 310.1503,363.58136 319.47619,355.37745 z M 316.57696,349.74096 C 329.93184,339.93975 297.39989,352.25615 316.57697,349.74097 L 316.57696,349.74096 z M 267.47619,389.37745 C 280.17177,380.45717 262.71745,397.58721 267.47619,389.37745 L 267.47619,389.37745 z M 265.47619,378.43647 C 267.88999,373.61671 267.97198,380.92255 265.47619,378.43647 z M 252.47619,372.48443 C 256.97594,364.1024 258.16175,378.50715 252.47619,372.48443 z M 266.6372,366.27769 C 255.60434,368.34395 262.22967,355.98518 253.31604,353.52734 C 251.75814,340.17486 265.19953,336.00192 273.70061,338.48674 C 261.57894,327.40876 293.43234,334.95733 279.42406,343.74449 C 299.90807,349.19152 274.02544,358.6929 271.27947,367.65264 C 269.8722,367.88456 268.103,366.57542 266.6372,366.27769 z M 278.47619,349.87745 C 276.0679,345.99637 275.85684,353.82264 278.47619,349.87745 z M 479.01892,353.94655 C 480.62767,348.13333 485.4503,359.40534 479.01892,353.94655 z M 487.47619,352.55142 C 491.82626,345.35415 502.87377,349.63102 490.28582,352.11302 L 487.47619,352.55142 L 487.47619,352.55142 z M 242.47619,348.98443 C 249.86005,343.30481 252.39607,349.91133 242.47619,348.98443 z M 482.47619,348.87745 C 486.0983,344.75989 487.05044,353.33376 482.47619,348.87745 z M 422.98266,346.12745 C 426.65418,341.50467 437.6004,338.90873 427.8997,333.1118 C 438.92053,334.67299 441.44086,349.39374 427.36408,345.49679 C 426.80581,346.74405 421.67005,349.72868 422.98266,346.12745 z M 500.32617,344.87745 C 499.06312,328.03116 508.25479,354.61616 500.32617,344.87745 z M 468.47619,339.97056 C 467.14908,324.55894 499.29339,337.29689 478.16373,335.37752 C 474.95872,336.19522 471.92668,342.96048 468.47619,339.97056 z M 230.55035,339.0002 C 220.09806,331.36804 243.68725,342.06049 230.55035,339.0002 L 230.55035,339.0002 z M 239.47619,339.43647 C 241.88999,334.61671 241.97198,341.92255 239.47619,339.43647 z M 494.47619,337.87745 C 497.51576,333.79127 498.12774,342.37896 494.47619,337.87745 z M 286.91729,335.40686 C 295.17271,329.82383 284.19118,340.98515 286.91729,335.40686 z M 383.97619,335.28383 C 381.98946,324.50343 397.71158,338.62746 383.97619,335.28383 z M 440.72619,334.79451 C 435.07287,325.37303 455.79033,309.59328 456.47523,315.23364 C 450.94799,320.63862 445.11346,331.34307 440.72619,334.79451 z M 259.82012,332.10188 C 268.55111,326.70563 259.4614,338.18085 259.82012,332.10188 L 259.82012,332.10188 z M 467.47619,331.87745 C 469.88449,327.99636 470.09552,335.82265 467.47619,331.87745 z M 218.72619,331.21518 C 213.88156,319.41534 233.23929,337.6265 218.72619,331.21518 L 218.72619,331.21518 z M 253.0849,331.05331 C 253.11446,325.42977 257.51612,331.77426 253.0849,331.05331 z M 513.49151,330.66641 C 502.34975,318.85414 519.64863,326.79559 513.49151,330.66641 z M 358.17004,330.23797 C 363.88163,323.20086 385.13638,322.96273 366.5705,329.01704 C 363.95965,329.97509 361.00085,331.72075 358.17004,330.23797 z M 342.22619,327.83853 C 340.13385,317.31713 364.26835,327.65508 347.24417,328.15771 C 345.54973,328.74201 343.89491,328.03539 342.22619,327.83853 z M 295.72619,327.09691 C 289.88038,316.92364 316.67406,311.09942 319.93255,314.80944 C 311.61789,319.29911 306.8862,328.06891 295.72619,327.09691 z M 429.93505,326.81093 C 430.73215,320.96395 435.81434,331.5118 429.93505,326.81093 z M 503.47619,324.87745 C 505.88449,320.99636 506.09552,328.82265 503.47619,324.87745 z M 204.78198,322.34585 C 217.83587,313.62952 199.39223,330.94216 204.78198,322.34585 z M 322.47619,321.98443 C 326.0594,316.12945 324.85917,325.39539 322.47619,321.98443 L 322.47619,321.98443 z M 284.25286,317.91641 C 264.78424,310.47204 306.82177,313.77426 287.82742,319.37288 C 286.6359,318.88739 285.44438,318.4019 284.25286,317.91641 z M 207.5462,315.67279 C 189.47,293.97069 248.91045,299.34576 220.91104,313.21018 C 217.37681,316.46681 211.6221,321.10869 207.5462,315.67279 z M 331.97076,315.88624 C 342.2947,314.38275 356.34262,299.57413 362.86662,302.80163 C 357.23601,312.82006 342.73757,316.64257 331.97076,315.88624 z M 371.97619,312.87745 C 376.3924,308.78528 373.61959,316.78901 371.97619,312.87745 L 371.97619,312.87745 z M 376.47619,304.96112 C 379.45196,292.85822 397.06691,307.09077 382.15106,307.55704 C 379.49611,306.90982 375.87788,309.17461 376.47619,304.96112 z M 263.47619,303.98443 C 267.58398,297.87377 271.12163,305.55594 263.47619,303.98443 z M 394.77636,303.4582 C 401.83011,297.37359 401.42627,307.6338 394.77636,303.4582 z M 334.66192,302.82252 C 342.63508,296.19785 355.07423,280.60071 365.44241,286.56608 C 355.18684,291.66398 347.4691,304.71944 334.66192,302.82252 z M 466.22619,301.84629 C 475.13694,293.24311 465.04158,305.78553 466.22619,301.84629 z M 439.97583,288.49154 C 425.11149,277.25156 456.40993,291.44091 439.97583,288.49154 L 439.97583,288.49154 z M 502.97619,285.87745 C 509.0213,281.34566 507.11805,290.64125 502.97619,285.87745 z M 450.47619,284.01313 C 455.13998,277.88065 470.05046,281.68616 456.05538,284.75304 C 454.95662,284.23912 450.09784,287.44201 450.47619,284.01313 z M 421.72619,280.17172 C 416.68504,265.39057 451.35508,276.32065 431.41597,280.04682 C 428.19194,280.92364 424.97663,280.6022 421.72619,280.17172 z M 387.47619,276.67163 C 375.69712,274.56164 379.28833,267.58733 389.79077,269.14438 C 396.14806,270.35112 418.19218,262.87763 414.1598,269.63253 C 404.66326,269.78308 395.80558,278.67317 387.47619,276.67163 z M 467.48449,276.87745 C 477.23357,268.95161 483.41744,280.23142 467.48449,276.87745 z M 364.93505,266.81092 C 366.04402,261.09333 370.01305,270.89596 364.93505,266.81092 z M 444.89697,265.44319 C 436.11231,267.57099 434.00039,255.53443 444.11456,261.37745 C 449.81091,254.24933 452.00431,269.45413 444.89697,265.44319 z M 470.47619,265.87745 C 474.99918,261.38038 474.15037,269.96747 470.47619,265.87745 z M 301.47619,263.48444 C 305.63848,258.50383 304.15785,265.77097 301.47619,263.48444 z M 399.97619,260.84617 C 387.29308,261.00685 393.44645,254.15799 398.88047,248.4886 C 390.37375,249.75938 378.13354,257.85285 371.5724,255.53424 C 385.01924,246.25582 401.93361,237.28333 418.89234,240.72769 C 432.7039,244.04953 414.14,229.02097 426.88389,228.28142 C 427.63987,220.59304 439.91963,233.79379 440.2226,220.58886 C 450.26347,206.07268 458.97971,232.01007 444.89538,234.21931 C 466.36359,233.81632 433.81352,267.25362 437.54141,246.8673 C 429.87745,231.36143 416.57064,254.16953 410.44344,249.05457 C 395.55705,232.09819 402.21007,264.28132 408.3006,260.63886 C 405.44189,261.10381 402.76239,262.05457 399.97619,260.84617 z M 433.89837,237.12745 C 455.99726,231.42028 418.87428,232.20492 433.89837,237.12745 z M 308.64837,257.22191 C 312.13415,250.53826 312.11405,260.84577 308.64837,257.22191 L 308.64837,257.22191 z M 405.97619,254.87745 C 407.60561,251.30567 409.23357,258.38483 405.97619,254.87745 z M 329.22619,251.18812 C 322.08993,239.36192 358.46614,245.28012 337.32735,250.24458 C 334.56933,250.80768 332.03964,252.46008 329.22619,251.18812 z M 232.90094,242.16182 C 219.2016,233.11829 260.57008,229.43854 241.38269,241.6495 C 239.03908,243.63335 235.49059,243.64957 232.90094,242.16182 z M 372.22619,242.1612 C 369.07901,235.90522 395.3801,234.96979 381.60142,241.23373 C 378.42084,241.0061 375.34735,244.09724 372.22619,242.1612 z M 360.72119,239.62745 C 365.64463,233.78054 364.80588,243.90615 360.72119,239.62745 z M 456.97619,239.87745 C 460.50735,236.81987 462.18151,244.38119 456.97619,239.87745 z M 354.47619,236.41263 C 358.29301,230.47144 360.11162,239.12397 354.47619,236.41263 z M 250.47619,233.37745 C 257.44906,227.1276 248.51625,238.57038 250.47619,233.37745 z M 254.83496,227.36992 C 260.73939,214.35901 247.04594,225.47504 247.1879,222.74557 C 250.78884,212.75565 272.98798,209.61853 278.37736,215.69842 C 272.08392,219.99221 262.5186,229.89105 254.83496,227.36992 z M 264.28869,217.93995 C 261.63605,214.48985 261.3405,223.96259 264.28869,217.93995 z M 359.47619,218.60688 C 363.16331,210.56634 362.66902,221.82101 359.47619,218.60688 L 359.47619,218.60688 z M 282.47619,206.29779 C 286.93298,192.0681 289.79328,218.12357 282.47619,206.29779 z M 264.72619,204.65696 C 258.69425,191.95354 287.57301,183.19486 275.11163,200.2629 C 272.23074,202.25474 268.70931,207.83161 264.72619,204.65696 z "
         id="path1575" />
    </g>
  </g>
  <g
     inkscape:groupmode="layer"
     id="layer2"
     inkscape:label="Grooves" />
</svg>
