<?xml version="1.0" encoding="UTF-8" standalone="no"?>
<!-- Created with Inkscape (http://www.inkscape.org/) -->
<svg
   xmlns:dc="http://purl.org/dc/elements/1.1/"
   xmlns:cc="http://web.resource.org/cc/"
   xmlns:rdf="http://www.w3.org/1999/02/22-rdf-syntax-ns#"
   xmlns:svg="http://www.w3.org/2000/svg"
   xmlns="http://www.w3.org/2000/svg"
   xmlns:sodipodi="http://inkscape.sourceforge.net/DTD/sodipodi-0.dtd"
   xmlns:inkscape="http://www.inkscape.org/namespaces/inkscape"
   width="841.88977pt"
   height="595.27557pt"
   id="svg2"
   sodipodi:version="0.32"
   inkscape:version="0.43"
   version="1.0"
   sodipodi:docbase="/home/garoth/Desktop"
   sodipodi:docname="MeteorTail.svg">
  <defs
     id="defs4" />
  <sodipodi:namedview
     id="base"
     pagecolor="#ffffff"
     bordercolor="#666666"
     borderopacity="1.0"
     inkscape:pageopacity="0.0"
     inkscape:pageshadow="2"
     inkscape:zoom="0.72788629"
     inkscape:cx="372.04724"
     inkscape:cy="526.18109"
     inkscape:document-units="px"
     inkscape:current-layer="layer1"
     inkscape:window-width="1280"
     inkscape:window-height="943"
     inkscape:window-x="0"
     inkscape:window-y="26" />
  <metadata
     id="metadata7">
    <rdf:RDF>
      <cc:Work
         rdf:about="">
        <dc:format>image/svg+xml</dc:format>
        <dc:type
           rdf:resource="http://purl.org/dc/dcmitype/StillImage" />
      </cc:Work>
    </rdf:RDF>
  </metadata>
  <g
     inkscape:label="Layer 1"
     inkscape:groupmode="layer"
     id="layer1">
    <g
       id="g10983"
       transform="matrix(0.988252,0,0,0.988252,11.57176,-62.28948)">
      <g
         transform="translate(93.42119,-152.4963)"
         id="g3964">
        <path
           style="fill:#b40909;fill-opacity:1;fill-rule:nonzero;stroke:#f30909;stroke-width:0.64179355px;stroke-linecap:butt;stroke-linejoin:miter;stroke-opacity:1"
           id="path1309"
           d="M 48.651079,770.18658 C 41.323124,774.20252 34.103688,778.42318 26.667213,782.23442 C 16.598866,787.39453 40.869054,764.61646 47.763377,755.64615 C 62.12717,736.95718 77.378848,718.77267 93.72922,701.78584 C 150.41487,642.89367 217.48264,595.22816 284.1915,548.53905 C 325.92482,519.20054 369.55947,492.73208 413.31577,466.56279 L 428.37011,460.76791 C 383.01703,487.16935 337.91101,514.10463 294.94628,544.30276 C 229.79648,589.92151 164.19523,636.56437 109.75049,695.04322 C 95.70828,710.12589 65.509668,763.59106 50.640719,772.5467 C 43.100323,777.08832 35.288652,781.16351 27.61262,785.47191 L 48.651079,770.18658 z " />
        <path
           style="fill:#b40909;fill-opacity:1;fill-rule:nonzero;stroke:#f30909;stroke-width:0.64179355px;stroke-linecap:butt;stroke-linejoin:miter;stroke-opacity:1"
           id="path1311"
           d="M 90.826086,775.68767 C 180.38353,720.27924 330.97448,628.13347 435.34039,550.15009 C 463.61695,528.99588 488.02942,503.73185 511.74138,477.7747 L 527.04695,471.37896 C 501.50935,497.85725 475.50105,523.90213 445.89682,545.95657 C 326.1613,634.69225 197.7932,715.49005 69.787625,790.973 L 90.826086,775.68767 z " />
        <path
           style="fill:#b40909;fill-opacity:1;fill-rule:nonzero;stroke:#f30909;stroke-width:0.64179355px;stroke-linecap:butt;stroke-linejoin:miter;stroke-opacity:1"
           id="path1313"
           d="M 77.670698,768.84334 C 173.18349,666.31547 302.19931,596.91675 422.31867,526.46258 C 430.60237,521.57099 438.88608,516.67941 447.16978,511.78783 L 462.51927,505.89057 C 453.45444,511.08269 444.38961,516.27481 435.32478,521.46693 C 317.60905,589.03932 193.81786,656.70081 100.84129,757.03733 L 77.670698,768.84334 z " />
        <path
           style="fill:#b40909;fill-opacity:1;fill-rule:nonzero;stroke:#f30909;stroke-width:0.64179355px;stroke-linecap:butt;stroke-linejoin:miter;stroke-opacity:1"
           id="path1315"
           d="M 140.46649,829.59082 C 255.81676,698.31532 409.99156,607.51242 558.49687,518.55388 L 566.23827,515.56991 C 423.03566,600.49323 268.36707,687.59013 163.45625,819.82305 L 140.46649,829.59082 z " />
        <path
           style="fill:#b40909;fill-opacity:1;fill-rule:nonzero;stroke:#f30909;stroke-width:0.64179355px;stroke-linecap:butt;stroke-linejoin:miter;stroke-opacity:1"
           id="path1317"
           d="M 224.36637,851.35966 C 271.56581,724.57597 366.44211,631.48145 474.63334,554.47292 C 531.37774,518.89073 502.03612,536.45001 562.75352,501.95468 L 552.9856,509.84277 C 510.8959,532.77139 534.51868,519.25801 482.65464,551.3082 C 378.43433,624.78001 285.66456,714.51948 247.53696,839.55365 L 224.36637,851.35966 z " />
        <path
           style="fill:#b40909;fill-opacity:1;fill-rule:nonzero;stroke:#f30909;stroke-width:0.64179355px;stroke-linecap:butt;stroke-linejoin:miter;stroke-opacity:1"
           id="path1319"
           d="M 78.68805,789.69874 C 226.95753,720.107 355.47591,611.12356 481.47873,507.79677 C 492.19589,498.59666 502.91305,489.39655 513.63021,480.19644 L 524.96291,475.61189 C 513.65847,485.05697 502.35404,494.50205 491.0496,503.94713 C 354.66437,613.90887 217.48903,729.66039 58.447332,805.42369 L 78.68805,789.69874 z " />
        <path
           style="fill:#f57e29;fill-opacity:1;fill-rule:nonzero;stroke:#f30909;stroke-width:0.37118012px;stroke-linecap:butt;stroke-linejoin:miter;stroke-opacity:1"
           id="path2194"
           d="M 99.984422,791.08426 C 96.8214,794.19631 93.705223,797.46699 90.495357,800.42043 C 86.149477,804.41911 96.62541,786.76784 99.601259,779.81652 C 105.80122,765.33398 112.38441,751.24235 119.44185,738.07885 C 143.90951,692.44187 172.8585,655.5047 201.65255,619.32416 C 219.66623,596.58904 238.50059,576.07797 257.38747,555.79875 L 263.88547,551.30816 C 244.30939,571.76728 224.83992,592.64009 206.29472,616.04135 C 178.17361,651.39244 149.85764,687.53714 126.35723,732.85383 C 120.29608,744.54176 107.26123,785.97323 100.84323,792.91317 C 97.588504,796.43258 94.216694,799.59054 90.903428,802.92924 L 99.984422,791.08426 z " />
        <path
           style="fill:#f57e29;fill-opacity:1;fill-rule:nonzero;stroke:#f30909;stroke-width:0.37118012px;stroke-linecap:butt;stroke-linejoin:miter;stroke-opacity:1"
           id="path2196"
           d="M 118.18875,795.34718 C 156.84512,752.40983 221.84585,681.00383 266.8941,620.5726 C 279.09935,604.17968 289.63669,584.60197 299.87167,564.48713 L 306.47813,559.53092 C 295.45513,580.0496 284.22897,600.23241 271.45068,617.32293 C 219.7683,686.08638 164.35979,748.69857 109.10775,807.19216 L 118.18875,795.34718 z " />
        <path
           style="fill:#f57e29;fill-opacity:1;fill-rule:nonzero;stroke:#f30909;stroke-width:0.37118012px;stroke-linecap:butt;stroke-linejoin:miter;stroke-opacity:1"
           id="path2198"
           d="M 112.51038,790.04335 C 153.73731,710.59199 209.4254,656.81322 261.27345,602.21656 C 264.84901,598.42595 268.42457,594.63535 272.00012,590.84474 L 278.62556,586.27481 C 274.71284,590.29832 270.80009,594.32181 266.88737,598.34532 C 216.07682,650.70881 162.64388,703.14135 122.51168,780.89458 L 112.51038,790.04335 z " />
        <path
           style="fill:#f57e29;fill-opacity:1;fill-rule:nonzero;stroke:#f30909;stroke-width:0.37118012px;stroke-linecap:butt;stroke-linejoin:miter;stroke-opacity:1"
           id="path2200"
           d="M 139.61542,837.11803 C 189.40494,735.38945 255.95261,665.02407 320.05311,596.08792 L 323.39457,593.77557 C 261.58292,659.58473 194.82213,727.07824 149.53866,829.54875 L 139.61542,837.11803 z " />
        <path
           style="fill:#f57e29;fill-opacity:1;fill-rule:nonzero;stroke:#f30909;stroke-width:0.37118012px;stroke-linecap:butt;stroke-linejoin:miter;stroke-opacity:1"
           id="path2202"
           d="M 175.82977,853.98726 C 196.20283,755.73948 237.15502,683.59826 283.85443,623.92246 C 308.34744,596.34895 295.68251,609.95607 321.89043,583.2248 L 317.67423,589.33747 C 299.50672,607.10542 309.70319,596.63357 287.31674,621.47004 C 242.33131,678.40515 202.28838,747.94645 185.83107,844.8385 L 175.82977,853.98726 z " />
        <path
           style="fill:#f57e29;fill-opacity:1;fill-rule:nonzero;stroke:#f30909;stroke-width:0.37118012px;stroke-linecap:butt;stroke-linejoin:miter;stroke-opacity:1"
           id="path2204"
           d="M 112.94951,806.20471 C 176.94821,752.27636 232.42159,667.82243 286.80915,587.75197 C 291.43509,580.62259 296.06103,573.49319 300.68695,566.3638 L 305.57858,562.81113 C 300.69917,570.13035 295.81972,577.44957 290.9403,584.76879 C 232.0713,669.98083 172.86125,759.67952 104.21285,818.39034 L 112.94951,806.20471 z " />
        <path
           style="fill:#4571ee;fill-opacity:1;fill-rule:nonzero;stroke:#f30909;stroke-width:0.3114526px;stroke-linecap:butt;stroke-linejoin:miter;stroke-opacity:1"
           id="path3079"
           d="M 104.72416,785.86584 C 101.34769,787.55318 97.970121,789.37611 94.594755,790.92789 C 90.024787,793.02886 103.04089,781.68033 107.22188,776.93724 C 115.93265,767.05539 124.86082,757.57144 133.94709,748.92837 C 165.44855,718.96344 198.46152,696.88929 231.15827,675.37165 C 251.63857,661.83135 272.2382,650.23089 292.82312,638.82478 L 299.28467,636.85064 C 278.08838,648.23368 256.87648,659.96657 235.79304,673.90271 C 203.85643,694.93011 171.56154,716.53352 140.93499,746.47765 C 133.0359,754.20074 111.98066,783.59061 104.97346,787.50482 C 101.41994,789.48983 97.860413,791.16345 94.303888,792.99276 L 104.72416,785.86584 z " />
        <path
           style="fill:#4571ee;fill-opacity:1;fill-rule:nonzero;stroke:#f30909;stroke-width:0.3114526px;stroke-linecap:butt;stroke-linejoin:miter;stroke-opacity:1"
           id="path3081"
           d="M 118.62192,793.54563 C 161.11099,769.07785 232.35842,728.55736 284.4677,691.89165 C 298.591,681.94198 312.13844,669.09716 325.57148,655.75904 L 332.23839,653.44557 C 318.05689,666.91271 303.79227,680.06803 289.02386,690.42832 C 229.38221,732.04875 168.2136,767.95713 108.20164,800.67254 L 118.62192,793.54563 z " />
        <path
           style="fill:#4571ee;fill-opacity:1;fill-rule:nonzero;stroke:#f30909;stroke-width:0.3114526px;stroke-linecap:butt;stroke-linejoin:miter;stroke-opacity:1"
           id="path3083"
           d="M 115.27888,788.03319 C 168.99526,735.53967 228.18868,706.62599 284.43018,676.15609 C 288.31509,674.03481 292.2,671.91354 296.0849,669.79226 L 302.67099,667.78627 C 298.45084,670.00989 294.23066,672.23349 290.01052,674.4571 C 235.17915,703.42267 178.17526,731.81769 125.78251,783.24015 L 115.27888,788.03319 z " />
        <path
           style="fill:#4571ee;fill-opacity:1;fill-rule:nonzero;stroke:#f30909;stroke-width:0.3114526px;stroke-linecap:butt;stroke-linejoin:miter;stroke-opacity:1"
           id="path3085"
           d="M 125.80538,831.41058 C 192.12004,763.48461 264.37911,724.14877 334.27015,685.35097 L 337.59364,684.33335 C 270.36435,721.22386 198.64698,758.2565 135.85059,827.83774 L 125.80538,831.41058 z " />
        <path
           style="fill:#4571ee;fill-opacity:1;fill-rule:nonzero;stroke:#f30909;stroke-width:0.3114526px;stroke-linecap:butt;stroke-linejoin:miter;stroke-opacity:1"
           id="path3087"
           d="M 151.35853,853.26761 C 192.62737,781.0645 244.29319,734.2389 297.57096,698.55899 C 324.58426,682.76736 310.77855,690.42261 338.99108,675.70003 L 334.00001,679.48991 C 314.63319,689.09778 325.62749,683.31354 301.02873,697.46029 C 249.8438,731.39895 199.57428,776.40201 161.86217,848.47457 L 151.35853,853.26761 z " />
        <path
           style="fill:#4571ee;fill-opacity:1;fill-rule:nonzero;stroke:#f30909;stroke-width:0.3114526px;stroke-linecap:butt;stroke-linejoin:miter;stroke-opacity:1"
           id="path3089"
           d="M 111.60563,800.8132 C 177.66674,773.76182 244.3408,720.73835 309.02824,670.89418 C 314.60986,666.4045 320.19148,661.91482 325.77309,657.42512 L 330.68026,655.80396 C 324.84293,660.38215 319.00556,664.96034 313.16823,669.53853 C 243.51411,722.34774 172.45976,778.59461 101.38332,808.28934 L 111.60563,800.8132 z " />
      </g>
      <path
         id="path4857"
         d="M 49.458275,608.61157 C 282.26829,487.74408 515.03257,365.36209 734.77718,221.6905 C 817.93874,165.21197 898.634,101.36312 982.29629,48.084434 C 774.96415,229.09022 567.94204,411.26536 376.79941,609.55057 C 333.36305,658.38371 283.58728,704.78932 256.22503,765.09961 C 259.28452,808.8885 235.44055,735.14814 217.41218,725.88782 C 172.80144,672.41736 111.67532,637.59753 49.458275,608.61157 z "
         style="fill:#ffffff;fill-opacity:0.76344084;fill-rule:evenodd;stroke:none;stroke-width:1px;stroke-linecap:butt;stroke-linejoin:miter;stroke-opacity:1" />
      <path
         d="M 194.84983,603.0421 C 194.62725,592.06471 177.43004,612.91382 168.42234,617.26622 C 164.52751,619.14815 174.02222,610.67175 176.83145,607.38244 C 187.3105,595.11258 198.60887,583.60168 211.08916,573.34464 C 231.48478,556.58232 255.34842,542.39021 279.30443,531.7744 L 255.15105,550.92011 C 241.92319,556.8563 249.76109,553.62955 267.16553,542.74878 C 273.51397,538.77991 254.22879,550.33035 248.14066,554.688 C 218.72376,575.74346 201.55195,608.25962 168.17286,622.42405 L 194.84983,603.0421 z "
         id="path6608"
         style="fill:#890000;fill-opacity:1;fill-rule:nonzero;stroke:none;stroke-width:1px;stroke-linecap:butt;stroke-linejoin:miter;stroke-opacity:1" />
      <path
         d="M 351.4677,567.32223 C 272.13605,619.44456 410.92611,502.68525 421.58324,494.88683 L 449.31235,483.94399 C 404.28207,514.98311 372.25642,560.14653 324.79073,586.70418 L 351.4677,567.32223 z "
         id="path6610"
         style="fill:#ce0d2e;fill-opacity:1;fill-rule:nonzero;stroke:none;stroke-width:1px;stroke-linecap:butt;stroke-linejoin:miter;stroke-opacity:1" />
      <path
         d="M 360.00073,474.62067 C 395.67609,450.44451 434.86554,431.42916 474.02083,413.5397 L 453.21752,430.06948 C 404.58967,452.57921 394.82466,458.83171 390.44511,462.0102 L 360.00073,474.62067 z "
         id="path6612"
         style="fill:#ca0000;fill-opacity:1;fill-rule:nonzero;stroke:none;stroke-width:1px;stroke-linecap:butt;stroke-linejoin:miter;stroke-opacity:1" />
      <path
         d="M 280.54835,679.63616 C 333.83181,633.83096 403.42449,606.31921 468.00083,579.36539 L 445.4828,597.09118 C 386.9682,620.11768 347.17552,635.22872 310.53193,666.07065 L 280.54835,679.63616 z "
         id="path6614"
         style="fill:#0094de;fill-opacity:0.68817204;fill-rule:nonzero;stroke:none;stroke-width:1px;stroke-linecap:butt;stroke-linejoin:miter;stroke-opacity:1" />
      <path
         d="M 214.0836,469.77952 C 204.92329,474.78791 195.96997,480.19502 186.60268,484.80469 C 183.38214,486.38953 191.36094,479.41785 193.95738,476.93952 C 203.61154,467.72451 214.46886,459.78514 225.63623,452.52006 C 261.6168,429.11242 300.06915,410.39809 339.69535,394.17676 L 316.85826,412.13695 C 260.38191,434.23589 242.60925,450.40063 187.40663,489.16148 L 214.0836,469.77952 z "
         id="path6616"
         style="fill:#fa6229;fill-opacity:1;fill-rule:nonzero;stroke:none;stroke-width:1px;stroke-linecap:butt;stroke-linejoin:miter;stroke-opacity:1" />
    </g>
  </g>
</svg>
